<svg xmlns="http://www.w3.org/2000/svg" viewBox="0 0 155.51 168.21">
  <path d="M30.82 167.51a12.95 12.95 0 0 0-1.04-1.98c-.6-.91-1.24-2.14-1.33-2.55a1.18 1.18 0 0 0-.27-.55c-.1-.08-.18-.25-.18-.38s-.3-.67-.66-1.21c-.37-.55-.75-1.19-.85-1.43-.1-.24-.28-.61-.4-.82-.12-.2-.37-.69-.55-1.07-.18-.38-.4-.78-.49-.88-.09-.1-.26-.45-.38-.76s-.38-.74-.59-.95a4.4 4.4 0 0 1-.68-1.18 6.01 6.01 0 0 0-.44-.96 6.76 6.76 0 0 1-.76-1.47c0-.07-.13-.31-.28-.53s-.54-.9-.86-1.54a784.1 784.1 0 0 0-2.24-4.4c-.08-.14-.29-.6-.47-1.02-.18-.41-.49-1.1-.69-1.5-.2-.42-.51-1.13-.7-1.58l-.58-1.34a2.82 2.82 0 0 1-.23-.96c0-.27-.09-.52-.21-.62a5.51 5.51 0 0 1-.93-2.01c0-.15-.1-.48-.24-.73-.3-.57-.77-1.73-.77-1.89 0-.06-.25-.66-.56-1.32-.32-.67-.57-1.27-.57-1.35 0-.07-.14-.4-.32-.73s-.31-.73-.32-.9c0-.18-.14-.66-.32-1.08-.17-.42-.4-1.01-.5-1.32s-.33-.86-.5-1.21c-.16-.35-.3-.8-.33-1.01-.04-.32 0-.38.28-.4.37-.05.5.09.74.72.1.25.33.8.53 1.23.2.42.36.86.36.97s.06.22.14.27c.07.05.3.43.49.86l1 2.13c.35.75.64 1.43.64 1.53s.06.22.13.26c.12.08.75 1.33.75 1.5 0 .04.17.44.37.87 1.1 2.4 1.27 2.78 1.27 2.96 0 .1.1.4.24.65.63 1.24.75 1.5.9 1.97.09.28.26.64.4.8s.23.36.23.42a223.28 223.28 0 0 0 6.69 13.22c.03.03.22.43.42.88.19.45.6 1.2.9 1.67.31.46.56.9.56.97 0 .2.87 2 1 2.09.08.04.14.17.14.27s.1.35.24.54c.13.19.34.6.46.9s.32.82.47 1.13c.3.66.72 1.74.78 2.02.02.1.2.53.39.94.9 1.97.84 1.78.62 2.2-.29.57-.53.48-.9-.34zm70.18.16a9.2 9.2 0 0 0-1.38-.07c-1.01-.02-1.42-.08-1.78-.26-.26-.13-.7-.24-.97-.24s-.54-.05-.58-.12c-.1-.18-1-.4-1.82-.45-2.68-.2-4.3-.3-5.5-.36-.76-.04-1.7-.16-2.08-.27-.38-.1-.96-.25-1.28-.31a9.3 9.3 0 0 1-2.1-.8c-.65-.3-1.79-1.82-1.79-2.38 0-.1-.13-.42-.3-.73-.16-.31-.37-.8-.46-1.07a3.75 3.75 0 0 0-.4-.84c-.12-.19-.44-.81-.71-1.4-.51-1.1-1-1.57-1.3-1.25a.67.67 0 0 1-.42.15c-.35 0-.75.39-1.66 1.57-.42.56-.92 1.17-1.1 1.36-.18.2-.41.51-.51.7s-.32.47-.5.64c-.18.17-.33.35-.33.4 0 .13-.4.72-1.1 1.63-.3.38-.86 1.15-1.27 1.7-.66.9-.8 1.04-1.42 1.25a6.5 6.5 0 0 0-.97.41c-.16.1-.44.17-.63.16-.51-.02-2.7.13-3.08.21-.19.04-.37 0-.42-.08-.05-.08-.22-.1-.39-.07a5.5 5.5 0 0 1-1.45-.18 5.2 5.2 0 0 0-1.23-.19c-.03.04-.18 0-.33-.1-.2-.13-.47-.15-1.19-.06-.66.08-.97.07-1.1-.04-.2-.17-1.6-.08-1.85.11-.17.14-1.19.3-2.25.35-.39.02-.89.13-1.12.25-.28.15-.56.19-.93.13-.28-.04-1.17-.1-1.97-.12-1.57-.04-1.6-.04-4.13-.53-.3-.06-1.26-.94-1.9-1.77-.6-.78-.55-1 .58-2.15.78-.81 1.1-1.05 1.63-1.22.36-.11.73-.2.82-.2.1 0 .4-.12.67-.26a4 4 0 0 1 .98-.33c.26-.04.5-.13.54-.19.04-.06.2-.1.37-.1.17 0 .49-.17.7-.36.41-.36.5-.62.74-2.3l.24-1.36c.08-.37.2-1.3.28-2.08.07-.78.22-1.9.33-2.48a37.05 37.05 0 0 0 .3-1.77v-.33c-.01-.14.16-1.05.38-2.01.22-.97.46-2.2.53-2.74l.13-.99-.63-.55c-.95-.83-1.22-1.75-1.36-4.6-.04-.87-.1-1.75-.12-1.96l-.13-2.07a8.79 8.79 0 0 0-.2-1.84c-.08-.1-.05-.24.1-.44.19-.22.22-.4.16-.9-.05-.34-.04-.94.01-1.33.06-.4.07-.76.04-.8s.03-.46.13-.9c.25-1.06.2-1.86-.16-2.3-.15-.2-.27-.42-.27-.49s-.1-.23-.21-.36a6.17 6.17 0 0 1-.84-1.32c-.19-.34-.46-.78-.6-1-.13-.2-.4-.67-.57-1.03s-.37-.7-.44-.73c-.06-.04-.12-.16-.12-.26s-.2-.48-.44-.84-.44-.73-.44-.82c0-.1-.11-.32-.25-.5s-.39-.83-.57-1.42l-.69-2.21a13.64 13.64 0 0 1-.64-3.15c-.58-4.24-.62-5.71-.25-8.58.08-.55.18-1.42.23-1.93.07-.76.15-.97.39-1.17.35-.29.74-.3 1.23-.05.64.33 2.31.17 3.23-.32.12-.07.44-.12.72-.12.27 0 .52-.05.56-.11.04-.06.31-.15.6-.2.3-.04 1.1-.3 1.77-.58.67-.27 1.3-.5 1.42-.5.1 0 .3-.11.45-.25.13-.14.47-.3.75-.36.27-.07.59-.2.7-.32.11-.11.31-.2.45-.2s.24-.05.24-.11c0-.12 1.4-1.17 2.06-1.55.55-.32 1.69-.85 2.28-1.07.87-.31 1.22-.24 1.81.4.3.3.77.7 1.07.9.65.4 4.73 4.51 5.49 5.52.16.21.67.78 1.13 1.27.75.77 1.49 1.66 2.7 3.24.19.24.75.7 1.24 1.03.5.33.93.7.98.8.04.13.36.48.7.79.35.31 1.15 1.07 1.78 1.68.63.62 1.43 1.3 1.79 1.54.36.23.84.6 1.07.84.24.23.61.5.83.6.23.08.44.26.48.4.04.12.18.26.31.3.13.04.59.38 1.01.76.42.38.81.7.86.7.05 0 .18.03.28.06.99.29 1.02.27 1.58-.83l.45-.88c.95-1.75 1.42-3.13 1.37-4.03l-.02-.5c0-.11.04-.62.1-1.14a3.14 3.14 0 0 1 1.15-2.34c.3-.28.54-.57.54-.64 0-.08-.24-.2-.54-.3-.3-.08-1.14-.34-1.9-.58a16.2 16.2 0 0 0-1.5-.43c-.09 0-.5-.17-.92-.38-.41-.2-.85-.38-.97-.38-.2 0-.83-.24-1.39-.52-.12-.06-.3-.1-.41-.1s-.42-.12-.7-.26a2.3 2.3 0 0 0-.71-.25c-.13 0-.3-.12-.39-.26-.09-.13-.26-.25-.38-.25s-.56-.12-.98-.27l-1.13-.36a9.76 9.76 0 0 1-2.15-.69c-.15-.1-.6-.27-.98-.38-.4-.11-.95-.34-1.25-.5-.3-.16-.76-.33-1.04-.38a4.27 4.27 0 0 1-1.25-.58c-.4-.28-.89-.53-1.07-.58a3.49 3.49 0 0 1-.64-.24l-.82-.38c-.28-.12-.7-.34-.95-.5a5.1 5.1 0 0 0-.94-.43 9.78 9.78 0 0 1-1.97-1 5.86 5.86 0 0 0-1.1-.46c-.36-.1-.95-.35-1.31-.55l-1.74-.91c-1.1-.55-1.9-1-2.5-1.4a4.94 4.94 0 0 0-.53-.3c-.1-.05-.41-.27-.7-.48s-.64-.49-.82-.6a16.7 16.7 0 0 1-3.94-4.56c-.42-.9-.89-2.25-.9-2.6a9.82 9.82 0 0 0-.47-1.76c-.23-.7-.25-1.04-.2-2.75.05-1.85.04-1.95-.2-2.12a1.2 1.2 0 0 0-.58-.19c-.18 0-.6-.14-.95-.3a3.37 3.37 0 0 0-.83-.32c-.11 0-.45-.18-.76-.38-.3-.21-.63-.38-.73-.38-.1 0-.36-.17-.6-.38s-.5-.38-.6-.38c-.1 0-.34-.18-.54-.41a4.21 4.21 0 0 0-1.96-1.22 7.19 7.19 0 0 0-6.27 1.72c-1.7 1.42-2.13 1.83-2.2 2.1-.04.18 0 .57.11.86.24.7.25 2.08 0 2.5-.1.17-.23.44-.3.59a3.4 3.4 0 0 1-.56.7c-.37.38-.57.46-1.35.58-.86.12-.93.12-1.3-.16a3.22 3.22 0 0 0-.6-.36c-.33-.11-.82-.85-1-1.53-.1-.34-.3-.68-.44-.77-.25-.16-2.03-.32-4.1-.39a28.87 28.87 0 0 1-4.66-.48 1.4 1.4 0 0 0-.76-.07c-.17.06-.6.1-.97.11-.65.01-.86.05-2.62.45-.49.1-1.02.2-1.18.2-.76 0-3.18.85-4.12 1.45-.34.22-.77.45-.94.5a4 4 0 0 0-.76.38c-.24.15-.58.32-.74.37-.17.05-.65.33-1.07.62-.66.46-.78.6-.99 1.21-.16.48-.5 1.01-1.1 1.73-.96 1.12-.89 1.09-2.4 1.05-.55 0-1.27-.23-1.27-.4 0-.06-.25-.38-.56-.7s-.57-.69-.57-.8c0-.1-.05-.25-.11-.32-.33-.35-.42-1.09-.26-2.1.1-.58.24-1.03.33-1.07a.28.28 0 0 0 .17-.24c0-.1.05-.17.1-.17s.22-.16.35-.35c.21-.3.24-.64.27-2.8.02-2.8.08-3.59.26-4.06.08-.18.1-.36.07-.4-.08-.08.44-3.68.6-4.08.06-.17.11-.53.11-.8s.05-.52.12-.56c.06-.04.18-.4.26-.8.08-.4.2-.89.27-1.1.07-.2.17-.67.24-1.03.06-.37.19-.85.28-1.08.35-.8.71-1.8.8-2.17.12-.6.55-1.66 1.27-3.16.37-.76.67-1.47.67-1.57 0-.1.08-.26.17-.37.22-.25 1.1-1.87 1.1-2.03 0-.06.13-.26.3-.44.16-.18.45-.65.64-1.05.42-.9 1.38-2.36 1.87-2.86.2-.2.41-.49.48-.63a28.55 28.55 0 0 1 3.17-4.48c.21-.3.62-.85.9-1.2s.63-.8.76-1c.13-.21.81-1.08 1.5-1.94.7-.86 1.34-1.67 1.42-1.81.08-.14.41-.52.73-.84s.58-.65.58-.71c0-.14.83-1 2.49-2.59a27.68 27.68 0 0 1 3.5-2.9c.54-.38 1.33-.96 1.75-1.29 1.03-.8 2.06-1.5 2.74-1.87.3-.17.6-.36.64-.43.05-.07.14-.13.2-.13a9.5 9.5 0 0 0 1.65-.97c.39-.26.75-.47.8-.47.05 0 .87-.52 1.82-1.14.96-.62 1.82-1.14 1.92-1.14s.72-.36 1.4-.82c.67-.45 1.26-.82 1.3-.82.05 0 .14.12.22.25.16.31-.2 1.13-.8 1.85-.23.27-.54.7-.7.96-.15.26-.5.65-.78.86a8.28 8.28 0 0 0-1.58 2.03c-.07.13-.23.34-.35.46-.11.13-.2.3-.2.36 0 .07-.2.45-.45.86-.24.4-.44.8-.44.9 0 .3.25.32.67.03.4-.29.5-.4.85-.98.1-.18.59-.92 1.07-1.65.48-.73.98-1.52 1.1-1.76.13-.25.44-.67.68-.95a23 23 0 0 1 3.69-3.75c.31-.23.88-.73 1.26-1.11.4-.4.8-.74.93-.79.12-.04.56-.31.97-.59.41-.28.78-.5.81-.5.14 0 1.3-.84 1.66-1.2.21-.21.55-.47.76-.57.42-.21 1.35-.78 1.44-.89.04-.04.26-.15.5-.25.25-.1.48-.2.51-.24a11.1 11.1 0 0 1 1.39-.7c.1-.03.36-.17.56-.3s.61-.3.89-.4c.28-.08.64-.25.82-.36.44-.28 1.02-.56 2.25-1.04 1.38-.55 1.5-.73 1.28-1.85a8.5 8.5 0 0 0-.32-1.22 11 11 0 0 1-.37-1.36 8.49 8.49 0 0 0-.46-1.47 3 3 0 0 1-.24-.61c0-.06-.11-.34-.25-.63s-.25-.6-.25-.71c0-.1-.06-.22-.13-.27-.07-.04-.1-.12-.07-.18.04-.06-.02-.17-.12-.26a.59.59 0 0 1-.19-.4c0-.28-.57-1.41-.83-1.62a.55.55 0 0 1-.18-.37c0-.23.7-.89.96-.89.08 0 .33-.16.56-.36.23-.2.8-.47 1.33-.63l.93-.28.55.37c.75.52.84.66.93 1.43.04.37.26 1.13.48 1.68.23.56.51 1.35.63 1.77.12.41.27.85.33.97s.11.3.11.41.35.9.77 1.76c.53 1.06.87 1.6 1.07 1.7.33.14 1.59-.06 2.56-.42.3-.1.7-.2.86-.2.17 0 .46-.08.65-.18.2-.1.77-.22 1.29-.26.51-.05 1.1-.17 1.3-.27.2-.1.47-.17.6-.17s.34-.05.46-.12c.23-.12 2.21-.41 3.18-.46a7.5 7.5 0 0 0 2.04-.26c.1-.06.53-.12.96-.14.44-.02.9-.08 1.01-.14.32-.15 7.99-.06 8.6.1.29.09.84.17 1.24.2.91.07 1 .09 2.35.56.63.22 1.4.45 1.7.5.32.07.91.22 1.33.36 1.58.52 3.11.85 3.4.74.34-.13.03-.4-.66-.59-.33-.09-.65-.2-.72-.25a3.4 3.4 0 0 0-.63-.24c-.98-.3-2.15-.82-2.59-1.16a3.5 3.5 0 0 0-.96-.5c-.54-.15-.96-.65-.73-.86a3.2 3.2 0 0 1 1-.19c.48-.04 1.34-.13 1.9-.2a95.92 95.92 0 0 1 14.56-.07c1.48.16 2.41.22 4.1.27 1.03.03 2.03.09 2.2.13.54.14.8.19 1.32.23.28.03.75.1 1.04.18.3.08.75.17 1.01.2.99.1 1.87.28 2.12.4.14.08.79.26 1.45.42.66.16 1.25.33 1.32.38.07.05.5.19.95.31s.93.3 1.06.4c.14.1.4.18.6.18s.6.14.93.32c.68.38 2.5 1.06 2.85 1.06.23 0 3.03 1.32 4.08 1.92 1.38.8 1.8 1.05 2.13 1.33.2.17.5.36.66.42a7.96 7.96 0 0 1 1.81 1.4c0 .05.3.32.66.59.87.64 2.85 2.6 3.85 3.8l1.25 1.48 1.11 1.4c.36.49.83 1.09 1.06 1.35.22.25.84 1.12 1.38 1.93.53.8 1.04 1.54 1.12 1.64.1.09.16.25.16.36 0 .1.14.36.32.56.17.21.31.45.31.54 0 .08.29.57.63 1.07.35.5.63.96.63 1 0 .15.88 1 1.83 1.79l.84.69-.05.63a3.1 3.1 0 0 1-1.32 2.37c-.4.3-.87.58-1.04.62-.18.04-.4.1-.52.15-.2.09-1.37-.71-1.37-.95 0-.07-.13-.39-.28-.72s-.36-.84-.47-1.15c-.26-.71-.7-.97-1.92-1.16-1.58-.24-2.4-.25-3.7-.06-1.43.2-3.03.54-3.4.7-.15.07-.57.22-.95.34-.39.13-1.1.44-1.58.7s-1.2.55-1.6.67c-.39.11-.78.28-.85.37-.08.1-.28.2-.44.25-.76.2-2.39 1.61-3.18 2.78a8.98 8.98 0 0 0-1.05 2.7c0 .18-.08.45-.18.59-.09.14-.2.48-.26.75-.04.28-.15.68-.22.9-.15.42-.13.49.3 1.18.33.54.4 1.38.17 1.93a4.97 4.97 0 0 1-1.83 1.84c-1.19.46-2.4.28-3.25-.5-.4-.38-.5-.52-.35-.57.1-.04.2-.18.2-.31 0-.28-.06-.3-.39-.12-.2.1-.27.06-.46-.26a.96.96 0 0 0-.58-.46c-.2-.03-.38-.12-.42-.18-.1-.15-.86-.13-1.43.05-.81.25-.87.5-.94 3.75-.08 3.95-.19 6.16-.32 6.75-.07.28-.15 1.02-.2 1.64s-.13 1.36-.19 1.64c-.06.28-.12.75-.12 1.05 0 .3-.06.65-.13.78s-.15.85-.19 1.6a8.33 8.33 0 0 1-.2 1.7c-.17.43-.02.86.66 1.87.26.38.88 1.57 1.38 2.65a25.59 25.59 0 0 0 1.38 2.7c0 .07.09.3.2.51 1.15 2.21 1.44 5.64.74 8.73-.11.47-.32 1.11-.47 1.42-.35.73-.96 1.64-1.1 1.64-.06 0-.15.11-.19.25-.08.26-2.25 2.53-2.42 2.53-.06 0-.36.24-.67.54a27.85 27.85 0 0 1-2.9 2.48c-.07 0-.51.39-.98.85a45.5 45.5 0 0 1-1.8 1.68c-.97.85-1.99 1.8-3.63 3.4-.53.52-1.3 1.22-1.7 1.55-.74.63-.87.94-.51 1.24.3.24 1.69.15 3.17-.22 1.43-.35 2.52-.39 3.1-.1a11.6 11.6 0 0 1 2.22 2.1c0 .07.14.3.32.53.17.22.31.45.31.5 0 .3 1.73 2.68 2.53 3.49.24.25.82.9 1.29 1.47.59.7.97 1.06 1.26 1.14.38.12 1.15.33 2.43.68 1.34.37 1.76.54 3.58 1.4.93.45 1.24.69 2.34 1.83.7.72 1.3 1.41 1.35 1.54s.14.26.21.3c.14.09.36.54 1.29 2.66.16.37.37 2.1.37 3.07 0 .62-.07.95-.25 1.26-.14.22-.26.6-.26.84s-.04.46-.1.5c-.06.03-.21.33-.33.65a12.83 12.83 0 0 1-2.48 3.53c-.6.68-1.43 1.4-2.13 1.87-.38.25-.95.65-1.26.89s-.61.43-.67.44c-.06 0-.47.26-.92.58-.44.3-1.05.66-1.34.77-.3.12-.6.26-.67.31s-.25.12-.38.15c-.59.1-1.93.62-2.1.82-.1.12-.27.53-.35.9-.1.39-.3.86-.46 1.06-.16.2-.3.46-.3.58s-.08.3-.19.38c-.1.1-.19.23-.19.3 0 .08-.14.4-.32.72-.74 1.32-.89 1.87-1.11 4.15a14.07 14.07 0 0 1-1.03 3.85c-.33.94-.8 1.7-1.4 2.28-.38.37-.53.6-.5.82.03.37.54 1.43 1.44 3.02 1.1 1.94 1.52 2.7 1.8 3.34.1.2.29.58.43.82.87 1.48 1.6 4 1.58 5.42v1.1c0 .51-.08.78-.4 1.32-1.3 2.11-1.92 2.85-2.7 3.2-.92.41-.97.42-1.38.2-.37-.18-1.46-.47-2.3-.61-.23-.04-.45-.12-.48-.18-.04-.06-.2-.11-.36-.11-.33 0-.62-.3-1.21-1.23a2.6 2.6 0 0 0-.51-.66c-.11 0-1-1.79-1-2a12.08 12.08 0 0 1-.9-3.3c-.01-.17-.11-.65-.24-1.07-.12-.42-.29-1.07-.37-1.45l-.26-1.14c-.37-1.47-.5-2.03-.57-2.7a3.97 3.97 0 0 0-.22-1.02 3.36 3.36 0 0 1-.24-.75l-.33-1.64c-.57-2.71-.75-2.9-1.75-1.9-.3.32-.89.8-1.3 1.07-.8.55-1.26 1.06-1.26 1.39 0 .11-.07.27-.14.34-.07.08-.15.36-.17.63-.02.27-.18.94-.36 1.5-.18.55-.38 1.46-.46 2.01a18.39 18.39 0 0 1-.58 2.9c-.1.28-.2.83-.24 1.22-.04.4-.19 1.07-.33 1.51a8.5 8.5 0 0 0-.33 1.35c-.09.8.13.98 1.26 1.07 1.11.1 3.08.7 3.79 1.18 1.21.8 1.72 1.47 1.72 2.25 0 .4-.11.57-.8 1.25-.9.9-1.82 1.39-3 1.58-.81.13-2.54.18-2.65.07zm-43.57-1.39c0-.07-.1-.14-.21-.17-.13-.02-.22.04-.22.17s.09.2.22.17c.11-.02.2-.1.2-.17zm9.35-.9c1.73-.08 1.81-.1 2.72-.65a5.63 5.63 0 0 0 1.99-1.79c.18-.31.73-1.16 1.21-1.9.5-.72.97-1.48 1.06-1.69.09-.2.32-.57.51-.82.2-.24.51-.74.7-1.1.2-.37.4-.67.46-.67s.11-.1.11-.23c0-.12.06-.28.13-.35.17-.17.61-.93.71-1.22.04-.12.12-.22.18-.22s.2-.18.3-.4.35-.7.55-1.05l1.1-1.88a51.1 51.1 0 0 1 2.01-3.2l1.04-1.52c.91-1.31 1.1-1.86.76-2.13-.09-.07-.5-.26-.94-.42-.52-.2-.8-.38-.85-.55-.05-.2-.1-.22-.22-.1a.7.7 0 0 1-.43.16c-.15 0-.49.17-.76.39-.58.47-1.08.7-1.95.88a2.2 2.2 0 0 0-.86.35c-.54.54-2.03.97-3.8 1.08a4.9 4.9 0 0 0-1.76.45c-.1.04-.5.1-.87.1a3 3 0 0 0-.8.11c-.08.04-.85.13-1.72.2-2.93.2-3.32.21-3.67.03-.22-.11-.57-.15-1.08-.1-.53.05-.9 0-1.23-.13-.26-.11-.83-.26-1.26-.34a5.3 5.3 0 0 1-1.07-.28c-.35-.18-.64-.04-.88.42a12.44 12.44 0 0 0-1.04 2.76c-.15.28-.8 2.05-1.17 3.16-.58 1.75-.75 2.2-1.12 2.91-.2.4-.36.8-.36.92s-.1.4-.2.62c-.2.38-.31.73-.55 1.72l-.42 1.52a4.78 4.78 0 0 0-.25 1.4c.1.59 1.05 1.19 2.94 1.87 1.79.66 2.68.89 4.35 1.13 1.04.14 2.17.33 2.52.4.99.2 1.87.33 2.08.3.1-.03.93-.08 1.83-.13zm27.9-.56c.73.03 1.08-.04 2.11-.4 1.46-.49 1.66-.64 1.74-1.36.03-.3.16-1.02.27-1.57l.33-1.64c.07-.34.16-.83.23-1.07.07-.24.19-1.46.26-2.71.08-1.25.2-2.61.26-3.03.14-.83.45-3.96.58-5.87.1-1.4 0-1.7-.61-1.83a4.28 4.28 0 0 1-2.87-1.76c-.24-.31-.52-.56-.65-.56-.12 0-.25-.06-.3-.13-.04-.07-.21-.13-.38-.13-.16 0-.6-.1-.97-.24-.63-.23-.92-.3-1.78-.46a2.3 2.3 0 0 1-.79-.39c-.56-.43-.68-.33-1.44 1.28-.61 1.3-1.2 2.08-1.58 2.08-.11 0-.38-.07-.6-.17-.9-.39-1.12-.46-1.4-.46-.36 0-.85.55-1.9 2.08a58.28 58.28 0 0 1-2.28 3.12c-.49.64-1.08 1.45-1.3 1.79l-.43.62.14.96c.08.52.17 1.3.21 1.71.04.42.16 1.01.25 1.32.1.32.32 1.35.5 2.3.39 2.04.86 3.54 1.29 4.1.35.47.82.74 1.67.97.32.1 1.01.28 1.54.43.53.15 1.2.3 1.51.33 1.66.18 2.49.31 2.83.45.48.2 1.9.37 2.4.29.2-.04.73-.06 1.16-.05zm22.51-1.17c.6-.2 1.4-.98 1.73-1.66.34-.7.34-1.8 0-2.46a2.34 2.34 0 0 1-.25-.69c0-.3-.36-.96-.74-1.36-.65-.7-2.25-.93-3.17-.47l-1.01.51c-.5.26-.72.49-1.12 1.19-.23.4-.29.68-.28 1.4.02 1.38.2 1.78 1.12 2.47.48.37 1.06.68 1.5.8l1.05.31c.46.15.64.15 1.17-.04zm-4.81-7.17a5.18 5.18 0 0 1 3.32-1.04c1.05.13 1.52-.25.94-.77-.24-.21-.46-.24-1.88-.23-1.5.01-1.64.04-2.24.36-.5.27-.7.47-.84.84-.3.75-.25 1.05.2 1.11.04.01.26-.12.5-.27zm-.44-3.52c1.43-.77 1.66-.86 2.37-.9.95-.07 1.16-.27.96-.93-.09-.27-.3-.77-.46-1.12-.17-.35-.3-.7-.3-.78 0-.09-.12-.36-.25-.6a2 2 0 0 1-.26-.63c0-.34-.63-1.57-.96-1.87-.44-.42-1.55-.68-2.03-.48-.42.17-.9.59-1.35 1.19a1.62 1.62 0 0 0-.14 1.7c.25.49.68 1.97.9 3.19.25 1.3.37 1.63.6 1.63.1 0 .52-.18.92-.4zm3.27-8.8c.24-.14.56-.56.84-1.1l.46-.88.09-2.83c.05-1.56.1-3.72.1-4.8.01-1.43.06-2.03.18-2.15.36-.37.88.46.9 1.45.01.63.29.73.77.27.2-.2.37-.41.37-.48s.09-.22.2-.34c.1-.11.32-.56.5-1 .35-.91.37-.85-.7-2.5a22.2 22.2 0 0 1-.75-1.23c0-.03-.26-.6-.57-1.26a21.2 21.2 0 0 1-.57-1.27c0-.18-1.06-1.58-1.3-1.71a4.63 4.63 0 0 0-.9-.31c-.64-.16-1.01-.1-2.72.33-.53.14-2.22.45-3.09.57-.34.05-.68.13-.75.19-.07.06-.41.16-.76.23a825.37 825.37 0 0 0-3.43.67c-.37.07-.7.18-.74.24-.04.07-.2.12-.35.13-.15 0-.5.09-.78.19-.66.24-1.47.42-2.33.5-.65.06-1.88.4-2.02.57-.03.04-.17.07-.31.08-.14 0-.54.04-.89.08-.8.1-1.03.37-.99 1.14.02.32-.02.6-.08.65-.07.04-.13.28-.13.54 0 .25-.08.6-.18.78-.1.17-.19.45-.19.61 0 .32-.25 1.17-.66 2.26-.14.36-.25.87-.26 1.13 0 .26-.05.53-.1.6-.05.07-.22.47-.37.89-.15.41-.43 1.1-.63 1.5-.66 1.42-.87 1.97-.8 2.15.07.2.73.38.93.25.07-.04.34.02.59.13.25.12.83.3 1.29.4.45.09.85.22.87.3.02.06.14.12.27.12.25 0 1.11.77 1.42 1.27.11.19.5.5.88.7l.67.35h2.96c1.63 0 3.19-.03 3.47-.09.66-.13 2.62-.23 4.68-.24 1.81-.01 2.1.05 3.13.75.72.47 1.21.52 1.78.18zm-31.47-.14c0-.08-.06-.1-.13-.06s-.12.1-.12.13c0 .04.05.06.12.06.07 0 .13-.06.13-.13zm5.26-1.67c.14-.15.47-.7.74-1.23.26-.52.57-1.08.7-1.26.1-.17.36-.68.54-1.13.18-.45.39-.92.45-1.04.07-.12.13-.3.13-.4 0-.09.11-.27.25-.4.14-.12.25-.35.25-.52s.05-.4.11-.51c.32-.63.52-1.21.52-1.5 0-.17.08-.43.18-.59.1-.15.27-.64.38-1.1.11-.45.3-1 .4-1.23.1-.23.25-.8.33-1.26.07-.47.19-.96.26-1.1.14-.27.19-.54.3-1.83.06-.75.04-.84-.24-1.1-.17-.16-.64-.4-1.04-.55-.73-.25-.74-.25-1.06-.01-.28.2-.34.36-.4 1.17-.09.93-.37 2.55-.6 3.4-.07.24-.2.8-.27 1.25-.08.45-.4 1.36-.72 2a7.81 7.81 0 0 0-.6 1.52c-.02.18-.15.6-.3.94-.15.33-.27.66-.27.73 0 .07-.23.55-.5 1.07s-.51 1-.51 1.06c0 .07-.32.7-.7 1.4-.78 1.39-.81 1.7-.24 2.09.3.19.92.36 1.45.4.11.01.31-.11.46-.27zm31.81-10c0-.2-.2-.24-.31-.05-.1.16.05.4.2.3.06-.03.11-.15.11-.25zm1.97-1.15c-.04-.05-.07.03-.07.16.01.15.04.18.08.08.04-.1.03-.2 0-.24zm-27.5-4.2c-.12-.18-.2-.15-.2.07 0 .1.07.16.14.12.07-.05.1-.13.05-.2zm24.5-.85c.58-.72 1.15-1.9 1.74-3.65.4-1.19.43-1.4.43-2.83 0-1.52-.05-1.83-.53-3.07a6.65 6.65 0 0 0-1.7-2.46 6.9 6.9 0 0 1-1.02-.98c-.64-.74-1.97-1.73-2.18-1.6-.2.11-.15.27.32 1.24.94 1.9 1.6 6.28 1.21 8.08-.07.35-.16 1.25-.2 2-.06 1.24-.04 1.42.25 2.13.18.42.32.83.32.9 0 .15.63.84.77.84.05 0 .3-.27.58-.6zm-21.29-.78c.9-.28 2.86-.84 3.5-1 .22-.07.56-.3.76-.54s.51-.58.71-.76c.6-.56 2.13-.71 3.1-.32.59.24.68.23 2.59-.12.28-.05.56-.1.63-.1.07 0 .35-.07.61-.16.27-.09.66-.16.86-.16s.48-.06.6-.12a6.34 6.34 0 0 1 2.45-.12c.32.06.84.22 1.16.37.85.38 1.08.26 1.06-.55-.01-.36.02-1.33.07-2.17.05-.97.03-1.8-.06-2.33-.08-.45-.2-1.13-.25-1.51-.1-.6-.84-2.52-1.06-2.74-.05-.04-.08-.15-.08-.24 0-.42-1.52-2.31-3.34-4.16a217.7 217.7 0 0 1-3.22-3.34c-.66-.7-1.33-1.37-1.49-1.48-.49-.32-.65 0-.73 1.37-.04.66-.13 1.3-.2 1.43-.07.14-.13.68-.14 1.2 0 .81.05 1.05.33 1.54.19.32.45.68.6.8.13.13.24.28.24.34s.15.33.33.6a7.66 7.66 0 0 1 1.06 2.79c0 .54-.2 1.14-.4 1.27-.2.12-.73-.14-.73-.36 0-.24-.7-1.6-1.21-2.39-.24-.35-.43-.69-.43-.74 0-.05-.2-.36-.44-.7s-.45-.73-.45-.86-.05-.28-.12-.32c-.18-.11-.12-3.05.07-3.85.1-.38.23-1.4.3-2.25.17-1.8.13-1.93-.82-2.49-.61-.36-1-.36-1.76 0l-1.07.5c-.38.18-.84.4-1 .5l-.51.26c-.1.04-.64.36-1.18.7-.54.35-1.04.64-1.11.64s-.49.25-.94.56c-.44.32-.84.57-.88.57-.05 0-.3.17-.56.38-.26.2-.51.38-.55.38a13.8 13.8 0 0 0-2.22 1.37c0 .06-.2.32-.44.57-.79.83-.84 1.86-.13 2.6.18.19.43.53.55.77.38.7.6.62 1.92-.67 3.83-3.76 4.9-4.57 4.9-3.71 0 .54-.4 1.26-1.13 2.06-.4.43-.77.9-.82 1.05-.14.44-1.27 1.87-2.01 2.54-1.04.95-2.22 2.8-2.2 3.47.01.95 1.1 3.99 2.13 5.97.05.1.17.53.25.95.1.46.33 1 .61 1.42.26.37.52.78.6.9.41.72.52.75 1.7.39zm-2.81-22.03c1-.54 1-.54 2.03-1 .73-.33 1.25-.8 1.07-.99-.14-.14-.86-.08-1.55.12-.96.3-2.33.1-3.37-.45-.26-.14-.54-.25-.62-.25s-.49-.2-.89-.43c-.4-.23-1.16-.6-1.68-.83a7.99 7.99 0 0 1-2-1.2l-1.1-.72c-.5-.33-.96-.6-1.01-.6s-.42-.31-.8-.69c-1.57-1.53-1.68-1.67-1.77-2.3-.1-.6 0-.92.28-.92.07 0 .48.36.9.8.43.45 1 .92 1.28 1.06l1.41.7c.5.26 1.06.46 1.24.46.17 0 .35.08.39.18.04.1.33.22.66.26s.67.17.78.26c.21.18 1.5.55 2.46.7l1.42.22c.98.16 4.47.1 5.53-.1.87-.15 2.36-.65 3.09-1.02.26-.13.58-.24.72-.24.91 0 2.64-1.5 3.64-3.16.14-.24.36-.78.47-1.2.28-.98.5-1.3.8-1.11.22.14.23.3.1 1.56-.12.98-.32 1.6-.81 2.44a7.84 7.84 0 0 1-3.26 2.98c-.76.36-2.08 1.4-2.16 1.72-.05.22.3.38 1.06.46.85.1 1.5-.2 2.14-1a217.2 217.2 0 0 1 10.2-10.12c.14-.17.37-.4.5-.5 1.18-.98 2-1.9 3.03-3.4l.8-1.18c.23-.32.4-.65.4-.73 0-.09.12-.32.27-.52.14-.2.22-.43.17-.5-.04-.08.03-.26.17-.41.33-.37.51-1 .52-1.9 0-.4.06-.82.11-.94.06-.11.1-1.1.08-2.19a9.12 9.12 0 0 0-.65-3.95l-.67-1.95c-.26-.8-.7-1.88-.97-2.4s-.53-1.06-.57-1.2l-.47-1.38a5.45 5.45 0 0 1-.39-2.27c0-.63.06-1.44.13-1.82.07-.37.13-.98.13-1.35s.06-.7.13-.74c.07-.05.12-.43.12-.87 0-.43.08-1.1.18-1.47.1-.39.15-1.1.13-1.63a6.3 6.3 0 0 1 .07-1.4c.1-.38.25-5.36.27-8.88.01-1.43-.11-2.66-.3-3.03a3.75 3.75 0 0 1-.23-.63c-.06-.2-.25-.8-.44-1.32a23.6 23.6 0 0 1-.81-2.78c-.16-.59-.33-1.13-.38-1.2s-.34-.6-.63-1.17c-.58-1.14-1.77-2.48-2.34-2.62-.55-.14-2.62.18-4.15.64-.63.19-1.45.4-1.84.45-.39.06-.87.2-1.07.3-.2.1-.46.2-.57.2a1 1 0 0 0-.44.18c-.29.2-1.15.4-2.58.6-.52.07-1.1.24-1.28.37a1.3 1.3 0 0 1-.57.24c-.36 0-1.43.35-1.88.62-.23.13-.68.28-1 .33a9.8 9.8 0 0 0-1.9.7 8.6 8.6 0 0 1-1.54.61c-.21 0-2.16.95-4.06 1.99-.9.48-1.07.57-1.77.87-1.21.54-1.98.96-2.77 1.5-.45.32-1.08.71-1.4.88s-.83.48-1.13.71c-.3.23-.73.5-.94.6-1.18.58-2.08 1.57-2.08 2.3 0 .16.2.58.44.92.55.77.57 1.24.08 1.92-.48.66-2 1.48-2.58 1.4l-.84-.15c-.24-.04-.46-.13-.48-.2a.95.95 0 0 0-.2-.28c-.08-.09-.39-.48-.68-.88l-.53-.72H75.9c-.7 0-1.45.11-2.3.33a15 15 0 0 1-1.64.35c-1 .07-1.94.25-2.45.46-.3.13-.7.24-.88.25a25.7 25.7 0 0 1-3.67.56c-.24.02-.87.13-1.39.24-.52.12-1.06.23-1.2.25-.48.06-1.38.36-1.55.51-.4.36-.67 2.25-.46 3.26.17.84.15.88-.8 1.43-.32.2-.7.49-.84.67l-.64.74-.4.43-.42-.24a8.03 8.03 0 0 1-2.4-2.19 6.55 6.55 0 0 0-1.22-1.26c-.5-.23-2.3-.76-2.6-.76-.38 0-1.58.37-2.35.72-1.03.47-1.1.5-2.27.9-1.56.54-1.67.6-2.05 1.3-.41.73-.6 1.28-.98 2.8-.4 1.64-.43 4.65-.05 5.57.15.34.33.91.42 1.26a14.84 14.84 0 0 0 2.55 4.58c.7.8 2.74 2.42 3.05 2.42.15 0 .42.09.6.19.17.1.47.18.66.18.2 0 .47.07.61.14.3.16 1.44 0 2.68-.35.66-.2.78-.29 1.2-.9.6-.9 1.2-1.86 1.52-2.44.26-.47.64-.7.9-.54.26.16.06 1.27-.3 1.75-.2.24-.34.52-.34.61 0 .1-.12.52-.26.93-.3.87-.46 1.78-.63 3.5-.07.68-.21 1.44-.31 1.68-.1.25-.19.58-.19.74s-.1.5-.21.75c-.2.42-.2.54 0 2.06.13.9.4 2.12.6 2.73.2.61.37 1.18.37 1.25 0 .24 1.87 2.32 2.45 2.72.3.2.6.38.67.38.07 0 .2.1.32.22.1.12.42.33.68.47.27.14.7.43.95.64s.72.47 1.01.56c.6.18 1.45.54 2.12.9.6.32 1.83.92 2.52 1.23a55.48 55.48 0 0 0 5.01 2.4c.23.07.6.27.83.45.23.17.49.32.57.32s.6.22 1.14.5c.55.27 1.27.57 1.6.65.35.08.82.24 1.06.36.24.12.52.2.6.16.1-.03.24 0 .32.07.08.06.45.21.81.33.37.12.7.27.74.34.04.06.15.11.25.11.17 0 .43.1 2.03.83.35.16 1.1.44 1.64.62.54.18 1.14.41 1.33.52.19.1.72.32 1.19.5.46.18 1.07.45 1.36.62.28.17.54.3.58.3.12-.03.95.16 1.2.27.13.06.62.23 1.07.38.45.15.93.37 1.07.5.33.3 1.53.86 2.02.93.74.1 1.44-.04 2.29-.5zm.48-12.79c-.9-.3-1.31-.53-1.96-1.08a4.21 4.21 0 0 0-1.48-.88c-.36-.1-.66-.24-.66-.28 0-.05-.31-.28-.7-.5-.91-.56-1.4-1.51-.86-1.72.22-.08.3-.05 1 .48.74.58 1 .7 2.38 1.15 1.18.38 2.08.54 3.48.63.58.03 2.9-.36 3.34-.57l.95-.43c.38-.18 1.26-.63 1.95-1.02l1.78-.94c.29-.13.56-.3.61-.37.05-.08.2-.14.33-.14.17 0 .24.09.24.3 0 .24-.23.5-.91 1.05a12.74 12.74 0 0 1-1.86 1.3c-.31.2-.99.58-1.5.84-.51.27-1.22.77-1.58 1.13a4.92 4.92 0 0 1-2.77 1.39c-.5.04-.9-.04-1.78-.34zm1.83-6.95a24 24 0 0 1-1.45-.3 25 25 0 0 0-1.33-.27c-.24-.04-.5-.11-.56-.17-.14-.1-1.34-.51-2.15-.73a3.89 3.89 0 0 1-1.3-.86c-.69-.61-.79-.76-.75-1.1.03-.35.08-.39.54-.42.3-.02.72.07 1.04.22.3.13.63.25.76.25.12 0 .47.09.78.2.66.24 3.28.58 4.3.56a13.85 13.85 0 0 0 4.72-.94c.28-.08.56-.18.63-.22.07-.04.36-.12.65-.17.67-.1.74.07.36.9-.49 1.06-2.66 2.78-3.8 3-.65.14-1.74.16-2.44.05zm-26.07-4.35a14.87 14.87 0 0 0-1.63-1.85c-.1-.05-.31-.38-.49-.71a2.84 2.84 0 0 0-.44-.7 5.13 5.13 0 0 1-.74-1.49c-.08-.2-.14-.6-.14-.92s-.05-.67-.12-.8a6.65 6.65 0 0 1-.14-1.53c-.01-1.2.02-1.4.4-2.38a6.08 6.08 0 0 1 1.7-2.6c.74-.8 1.1-.97 1.41-.66.19.19.2.69.03.8-.07.04-.22.29-.33.54-.1.26-.32.6-.48.78a8.62 8.62 0 0 0-1.31 3.11c-.1.8.13 2.33.53 3.42.2.53 1 2.08 1.23 2.38a9.4 9.4 0 0 1 1.24 2.65c0 .56-.27.55-.72-.04zm14.34-.55c-.1-.06-.33-.12-.5-.12-.33 0-.9-.3-1.33-.72-.3-.28-1.55-1.18-1.64-1.18-.04 0-.35-.22-.7-.5s-.83-.6-1.06-.7c-.23-.1-.8-.52-1.28-.92-1.25-1.04-2.73-2.04-3.04-2.04-.15 0-.36.13-.47.28-.36.52-.18 2.04.3 2.55.14.15.26.42.26.6 0 .31-.26.98-.38.99-.04 0-.24-.23-.44-.52-.2-.28-.6-.79-.89-1.13-.78-.94-1.57-2.52-1.57-3.13 0-.62.48-2.15.75-2.41.4-.38.93-.65 1.63-.84.4-.1.88-.27 1.08-.37.2-.1.42-.18.49-.18.3 0 1.84-.84 2.27-1.24.72-.68.78-.7 1.15-.26.44.52.34.88-.48 1.75-.82.87-1.02 1.03-1.69 1.29-.72.28-1.41.82-1.41 1.1 0 .3.19.45.94.7.72.23 2.1.73 3.03 1.09.35.13 1 .3 1.45.36.8.11 1.27.21 2.58.51 1.43.33 1.68.39 2.4.51 1.55.28 6.2.57 8.32.52 2.16-.04 5.24-.3 6.12-.53.31-.08 1.04-.2 1.62-.25a10.26 10.26 0 0 0 1.91-.33c.57-.06 2.85-.54 3.22-.68.14-.05.59-.17 1-.26.94-.2 1.98-.62 2.84-1.12a5 5 0 0 1 .72-.38c.04 0 .26-.15.49-.32.61-.46.81-.97.81-2.03 0-.78.04-.94.24-1.05.17-.1.27-.08.37.03.27.33.67 1.71.74 2.58l.07.92-.53.5c-.46.45-.58.5-.95.43-.49-.1-.84.06-1.45.64-.25.23-1.03.73-1.75 1.1a4.69 4.69 0 0 0-2.41 2.25c-.34.56-1.6 1.9-2.11 2.23-.29.18-.32.18-.56-.06a1.5 1.5 0 0 1-.31-.8c-.1-.88-.32-1.5-.58-1.58-.2-.06-2.2.03-2.74.13-2.27.44-8.68.46-11.42.03a18.42 18.42 0 0 0-3.85-.34c-.3.08-.32.13-.38 1.35-.07 1.52-.3 1.93-.88 1.55zm12.52-6.13c-.29-.17-.71-.55-.94-.83a4.65 4.65 0 0 1-.86-2.02c0-.33-.3-.89-.76-1.38-.84-.91-.51-1.84.4-1.13.16.13.44.28.61.33.17.06.63.26 1.01.45.95.47 1.88.67 3.15.66a3.62 3.62 0 0 0 2.67-.9c1.12-.82 1.75-1.7 1.75-2.43 0-.16.07-.47.15-.7.14-.38.12-.5-.13-.98-.16-.3-.43-.6-.59-.68a6.57 6.57 0 0 0-3-.33c-2.16.2-3.24.04-3.34-.47-.07-.32 1.04-.72 2.93-1.07.21-.04.44-.12.52-.18.18-.15 3.04-.12 3.43.03.17.06.65.43 1.08.81.87.79 1.09 1.28 1.09 2.51 0 .87-.28 1.56-1.17 2.93-.61.93-1.1 1.33-2.68 2.18-1.25.68-1.45.84-1.45 1.24 0 .17-.15.56-.34.86-.27.43-.55.66-1.22 1-1.03.51-1.56.53-2.3.1zM49.6 67.98c-.12-.14-.3-.25-.39-.25-.23 0-1.39-1.18-1.9-1.93-.78-1.14-.64-3.1.3-4.18.48-.55.52-.65.61-1.7.06-.74.18-1.09.58-1.71.31-.49.31-.6 0-.8-.2-.12-.37-.1-1 .17-.82.34-1.15.38-1.52.18-.28-.14-.33-.68-.09-.8.09-.04.3-.18.48-.3 1.19-.8 1.18-.8 1.76-.72.88.11 2.22.84 3.47 1.88 1.66 1.38 2.72 2.7 2.54 3.16-.13.33-.43.36-.93.1-1.06-.54-1.55-.84-1.55-.94 0-.05-.09-.1-.19-.1-.26 0-.24.1.13.53.44.52.52.94.24 1.24-.28.32-2.61 1.47-3.4 1.7-.28.07-.56.54-.56.93 0 .13.11.38.26.56.35.45.9.44 1.77-.02.37-.2.95-.47 1.3-.6l.6-.22.38.42c.24.28.35.52.3.69l-.15.78c-.1.71-.77 1.7-1.31 1.96-.61.31-1.46.3-1.73-.03zm50.65-1.9a.9.9 0 0 0-.4-.11c-.13 0-.47-.12-.75-.25-.29-.14-.71-.29-.94-.33a1.43 1.43 0 0 1-.74-.46c-.37-.44-.38-.52-.11-.74.17-.14.33-.12 1.04.12a8 8 0 0 1 2.35 1.15c.33.36-.05.88-.45.62zM86.64 57.4a8.27 8.27 0 0 0-.63-.33c-.34-.13-1-1.13-1.27-1.9-.32-.89-.62-2.24-.62-2.75 0-.4.47-1.79.9-2.63.37-.74 1.4-1.59 2.16-1.78.71-.17 1.87.74 2.18 1.73.4 1.3.43 1.5.22 1.93-.16.34-.32.45-.97.64-.64.2-.78.28-.82.53-.1.67.26.95 1.51 1.2.5.1.52.33.13 1.38-.36 1-.67 1.37-1.57 1.9-.66.39-.66.39-1.22.08zm22.07-.46c-.65-.2-1.19-.68-1.4-1.24-.07-.21-.22-.59-.32-.83-.24-.57-.27-3.36-.05-4.16.2-.74.59-1.6.86-1.88l.57-.63c.29-.32.46-.4.86-.4.45 0 .58.08 1.12.66.4.44.68.9.83 1.36.12.38.27.75.33.82.26.31.08.68-.6 1.2-.54.42-.69.61-.69.89 0 .36.51.9 1 1.06.37.12.44.53.2 1.19-.33.86-1.03 1.76-1.54 1.97-.51.22-.44.22-1.17-.01zm4.22-15.11a5.89 5.89 0 0 1-2.08-2.04c-.1-.2-.36-.65-.57-1-.53-.86-1.2-2.42-1.2-2.8 0-.21.25-.55.77-1.07.76-.77.76-.77 1.35-.68.36.04.85.24 1.23.5.34.23.83.54 1.08.69a4.82 4.82 0 0 1 2.18 3.49 3.53 3.53 0 0 1-1.35 2.9c-.54.37-.6.37-1.4.01zM5.18 84.12c.22 0 .88-.66.88-.89 0-.43-.28-.86-.7-1.06-.52-.25-1.12-.25-1.36 0-.26.26-.4 1.03-.26 1.42.12.33.84.69 1.17.59.09-.03.21-.06.27-.06zm27.36-3.15c0-.07-.05-.13-.11-.13-.07 0-.16.06-.2.13-.04.07.01.12.12.12.1 0 .2-.05.2-.12zm-24.12-.89c.38-.2.8-.37.92-.37.13 0 .61-.3 1.07-.64a12.82 12.82 0 0 1 6.4-2.46c.23-.02.7-.1 1.04-.19a68.31 68.31 0 0 1 9.59.06c.76.03 1.54.11 1.74.19.19.07.68.21 1.1.3.8.2.8.2 1.76-.48 1.25-.87 1.14-.83 2.04-.75.82.08.84.07 1.07-.28.3-.47.81-.94 1.8-1.65l1.47-1.06c.77-.58 2.15-1.31 2.8-1.48a7.9 7.9 0 0 1 1.38-.15c1.27-.04 1.32-.13.7-1.34l-.63-1.23a7.67 7.67 0 0 1-.66-1.77l-.26-1.07c-.4-1.68-.5-3.69-.24-4.94.15-.71.56-2.39.69-2.83.11-.4-.2-.58-.6-.37a189.23 189.23 0 0 1-2.17 1.1l-1.19.62c-1.07.55-2.53 1.6-3.68 2.63-.3.28-.61.5-.67.5-.06 0-.57.45-1.13.99-.57.54-1.64 1.51-2.39 2.16-1.45 1.28-1.54 1.44-1.16 2.17.16.3.18.6.12 1.41-.13 1.62-.23 1.86-.91 2.37-.33.24-.82.52-1.08.6-.44.15-.56.14-1.17-.11-.4-.16-.69-.36-.69-.47 0-.12-.07-.16-.2-.1-.23.08-.93-.49-.93-.75 0-.07-.16-.32-.35-.55-.33-.4-.39-.41-1.16-.4-1.22 0-2.52.1-2.96.24-.21.06-.73.18-1.14.26-1.05.2-1.72.38-2.02.5-.47.21-1.1.4-1.38.4-.6 0-3.87 2.36-5.66 4.08a6.2 6.2 0 0 0-1.47 1.94c-.28.56-.5 1.1-.5 1.2 0 .1-.12.43-.26.73-.3.69-.32 1.07-.03 1.24.29.17.21.18 1-.25zm26.92-6.34c-.35-.42-.4-.89-.28-2.16.25-2.35.55-4.04.84-4.67.16-.35.35-.92.43-1.26.08-.35.2-.75.25-.89.18-.42.88-1.88 1-2.08.07-.1.15-.33.19-.5.1-.49 1.2-1.91 1.44-1.86.3.06.24.48-.35 2.11a23.88 23.88 0 0 0-1.2 4.42 39.18 39.18 0 0 0-.88 4.09c-.05.28-.14.68-.2.88l-.24.9c-.14.52-.57 1.19-.76 1.19-.06 0-.16-.08-.24-.17zm-.86 6.08c.7-.54.22-1.8-.66-1.78-.5.01-.97.3-1.09.66-.16.5.6 1.38 1.22 1.38.1 0 .35-.11.53-.26zm-20.22-.87c0-.07-.06-.13-.13-.13a.13.13 0 1 0 .13.13zm12.64-8.7c.59-.17.85-.54.85-1.2 0-.38-.07-.59-.28-.77-1.03-.9-1.87-.54-2.07.9-.06.47-.03.55.33.86.45.38.5.39 1.17.2zm-10.2-9.71c.92-.55 1.76-1.1 1.85-1.2.14-.17.28-.67.62-2.27.07-.28.26-.93.45-1.45l.62-1.83c.16-.48.4-1.12.56-1.41.15-.3.27-.65.27-.78 0-.14.05-.28.1-.32.11-.07.64-1.4.92-2.34.1-.32.33-.9.52-1.3.2-.4.5-1.19.68-1.76.18-.57.38-1.14.44-1.26.47-.91-.32-.8-1.91.3-.4.27-.8.49-.91.49-.44 0-1.2.54-1.4 1l-.62 1.46c-.24.55-.6 1.57-.79 2.27-.19.69-.48 1.56-.64 1.92-.17.37-.3.74-.3.84s-.17.59-.38 1.1c-.2.5-.38 1.06-.38 1.22 0 .16-.11.52-.25.8a2.8 2.8 0 0 0-.25.68c0 .08-.11.42-.24.76a25 25 0 0 0-1.15 3.74c0 .54.32.45 2.18-.66zm6.08-3.52c.06-.07.57-.36 1.13-.65.55-.29 1.1-.6 1.2-.7.11-.1.27-.18.34-.18.22 0 .66-.63.66-.95 0-.16.05-.43.12-.58a11 11 0 0 0 .26-.86c.16-.57.23-.8.47-1.39l.35-.88a29.32 29.32 0 0 1 1.47-3.3c.3-.61.63-1.14.72-1.18.25-.1.54.19.46.45-.04.13.01.53.13.9l.5 1.74c.8 2.8.82 2.83 2 2.35.85-.35 1.15-.72 1.4-1.75.29-1.1 1.33-4.55 1.5-4.95.1-.2.3-.72.46-1.13.25-.7.73-1.73 1-2.21.2-.35.5-1.07.84-2.02.2-.52.45-1.11.58-1.32.12-.21.23-.46.23-.56 0-.1.07-.27.16-.38.1-.1.3-.51.47-.9.17-.37.5-.97.72-1.31.68-1.04.48-1.57-.42-1.14l-.91.42c-.26.12-.9.46-1.43.77-.92.52-.98.59-1.22 1.26-.14.38-.3.87-.35 1.08-.04.2-.13.44-.18.5-.05.07-.22.56-.38 1.08-.23.76-.83 2.13-1.5 3.4-.17.33-.43.2-.7-.31a9.04 9.04 0 0 1-.7-2.08c-.08-.32-.29-.72-.46-.91-.32-.34-.33-.34-.84-.14-.29.11-.64.3-.77.4-.14.12-.53.35-.87.52-.34.17-.74.49-.9.7-.28.38-1.2 2.68-1.2 3.02 0 .19-.53 1.5-1.08 2.65-.17.35-.3.73-.3.85s-.12.4-.26.63c-.14.22-.25.53-.25.68 0 .15-.23.77-.52 1.38-.28.61-.71 1.68-.95 2.38-.25.7-.58 1.54-.75 1.88-.16.33-.3.68-.3.77 0 .09-.12.45-.27.81-.22.53-.25.7-.13.96.15.33.27.39.47.2zm20.74-.2c0-.1-.06-.2-.13-.2s-.13.1-.13.2.06.19.13.19.13-.09.13-.2zm-1.46-7.66c.24-.23.65-.7.91-1.07a44.1 44.1 0 0 1 1.68-2.03c.66-.76 1.37-1.63 1.58-1.93.2-.3.6-.79.88-1.07.6-.62 1.56-1.8 2.31-2.87.99-1.38 1.1-2.02.42-2.17a8.1 8.1 0 0 1-1.13-.44c-.43-.2-.87-.37-.97-.37-.1 0-.2-.05-.24-.11-.04-.06-.37-.14-.73-.17-1.2-.12-1.41-.88-.59-2.08.57-.83 2.88-3.1 5.78-5.71.8-.71.81-.96.1-1.13-.3-.07-.88-.25-1.3-.4-1.5-.54-1.43-.56-2.86.91-.7.72-1.65 1.77-2.12 2.32-.78.92-1.27 1.43-1.74 1.86-.1.09-.46.61-.83 1.17l-1.06 1.57c-.9 1.27-1.25 1.85-1.34 2.21-.05.2-.25.73-.46 1.17-.42.9-.46 1.23-.15 1.34.12.05.88.05 1.68 0 1.42-.08 1.49-.07 1.88.22.37.27.4.35.35.82-.04.36-.26.82-.77 1.54-.39.57-.7 1.06-.7 1.1 0 .07-.2.28-2.05 2.26-1.28 1.37-1.93 2.25-1.82 2.51.04.1.23.23.42.26.2.04.52.13.73.2.44.16 1.47.47 1.6.49.06 0 .3-.18.54-.4zm38.7-.48c.44-.35.42-.71-.07-1.22-.55-.57-1.2-.58-1.66-.04-.48.58-.53.86-.2 1.21.39.41 1.44.44 1.93.05zm48.4-1.67c.55-.38.61-.81.16-1.27-.44-.44-.71-.42-1.12.06-.43.5-.4 1.1.06 1.33.4.21.4.21.9-.12zm-1.85-1.83c.07-.05.19-.2.26-.33s.31-.3.53-.38c.53-.18.54-.2.6-1.03.07-.8.38-1.9.64-2.2.09-.1.2-.35.25-.56.05-.21.2-.52.33-.68.12-.17.23-.35.23-.42 0-.26 4.14-4.45 4.6-4.65.14-.07.51-.32.82-.56a23.06 23.06 0 0 1 5.1-2.43c.94-.34 1.78-.51 3.85-.76.5-.06.7-.15.74-.3.05-.3-.76-.45-2.82-.55a7.48 7.48 0 0 0-2.83.2c-.6.14-1.24.3-1.45.32a6.25 6.25 0 0 0-2.58.81c-.08 0-.36.14-.63.31-.37.23-.52.43-.58.73-.1.55-.86 1.58-1.3 1.76-.18.07-.83.15-1.43.18-.96.03-1.14 0-1.51-.25a3.5 3.5 0 0 1-1.04-1.63c-.04-.14-.2-.22-.42-.22-.2 0-.42-.04-.48-.1-.07-.06-.69-.2-1.38-.32-.7-.12-1.47-.26-1.73-.32-.26-.05-.52-.05-.58 0-.06.07-.38.06-.75-.02-.36-.07-.98-.1-1.38-.06-.4.04-1.28.11-1.96.15-1.58.1-1.63.16-1.17 1.27.2.47.4.9.46.97.06.07.11.27.11.44 0 .18.09.61.2.96.1.34.21 1.08.24 1.64.03.78.11 1.15.37 1.64.27.52 1.04 3.49 1.15 4.4.17 1.47.37 1.68 1.38 1.43.51-.13.64-.22.67-.46.03-.17 0-.42-.08-.57l-.53-1.3a5.74 5.74 0 0 0-.51-1.12c-.06-.03-.2-.27-.33-.53a5.87 5.87 0 0 0-.45-.79c-.26-.37-.18-.75.16-.75.27 0 1.43 1.25 1.77 1.9.12.25.32.53.44.62.11.1.38.44.6.75.2.32.63.84.93 1.17.36.4.55.7.55.94 0 .57.55.99.94.7zm-64.53-3.84c.4-.19.81-.51 1.04-.8l1-1.31c.35-.45.64-.91.64-1.02 0-.1.05-.25.1-.31a4 4 0 0 0 .35-.82c.21-.62.24-1.05.2-4.03-.01-1.84-.08-3.8-.15-4.35-.07-.56-.15-2.06-.2-3.34-.04-1.48-.12-2.4-.2-2.5-.18-.21-1-.13-1.56.15-.2.1-.7.27-1.1.39-.94.27-1.27.6-1.17 1.2.05.24.1.7.14 1l.2 1.77c.14 1.2.15 2.22.04 5.49-.12 3.4-.18 3.87-.58 4.24-.38.35-1.27.55-1.63.36a2.85 2.85 0 0 1-.58-.9l-.37-.8.03-2.4.05-2.65c.01-.13-.01-.9-.06-1.68-.04-.79-.03-1.5.03-1.58s.1-.65.1-1.27c0-1.05-.03-1.14-.27-1.18-.28-.04-2.5 1-2.64 1.24-.3.49-.48 1.7-.58 3.97-.15 3.57-.22 4.91-.3 5.98-.12 1.87.58 3.8 1.72 4.72 1.06.84 4.34 1.09 5.75.43zm8.54-4.26c.53-.21 1.33-.48 1.77-.59 1.06-.26 1.5-.64 1.38-1.2a5.06 5.06 0 0 0-.25-.8 8.46 8.46 0 0 1-.61-3.11c0-.92.04-1.16.26-1.45.3-.4.56-.42 1.74-.12 1.35.34 1.75.48 2.94 1.04l1.22.56c.1 0 1.53.91 1.76 1.13.34.32 1.14.65 1.36.57.1-.04.33-.37.52-.73l.78-1.4c.23-.4.44-.83.43-.94 0-.2-.75-.78-1.02-.78-.13 0-1.07-.5-1.94-1.04l-.94-.58c-.82-.5-1.26-.98-1.26-1.35 0-.15.14-.51.3-.82.18-.3.44-.81.6-1.12.15-.32.34-.66.43-.76.5-.6 1.12-3.62.98-4.8-.14-1.14-1.03-1.32-2.92-.6-.16.05-.42.1-.58.1-.4 0-2.87.57-3.17.73-.14.07-.39.13-.56.13-.32 0-1.26.36-2.84 1.1-.5.22-1.24.51-1.68.63-.57.16-.88.34-1.16.65-.34.4-.38.5-.38 1.36 0 .52.06 1.21.12 1.54.07.34.21 1.69.33 3s.3 3.05.4 3.85c.1.8.2 1.68.21 1.96 0 .27.05.56.1.63.03.07.05.66.03 1.32-.03 1.12.07 1.73.36 2.11.17.22.2.21 1.29-.22zm2.57-12.04c-.39-.4-.43-.53-.49-1.42a7.66 7.66 0 0 1 0-1.35c.09-.43.37-.54 1.77-.7.52-.06 1.09-.14 1.26-.18.7-.18.92.35.7 1.7-.12.68-.2.77-1.06 1.43-1.49 1.14-1.58 1.16-2.18.52zm44.63 11.21c-.12-.12-.36.08-.27.22.05.09.12.09.21 0 .07-.08.1-.17.06-.22zm-16.24-1.18c0-.07-.06-.13-.13-.13-.08 0-.1.06-.06.13.04.07.1.12.14.12.03 0 .05-.05.05-.12zm51.12-.14c.85-.67-.22-1.9-1.19-1.37-.32.17-.34 1-.02 1.28.46.4.78.43 1.2.1zm-22.43-.87c-.04-.07-.25-.13-.45-.13s-.37.06-.37.13.2.12.45.12c.27 0 .42-.05.37-.12zm1-.8c.46-.2.95-.81.95-1.19 0-.44-.44-.7-1.14-.69-.85.02-1.04.1-1.29.52-.34.57-.28.96.2 1.26.48.31.71.33 1.27.1zm-2.07-.08c0-.06-.06-.15-.13-.2-.07-.04-.13.02-.13.12 0 .11.06.2.13.2s.13-.05.13-.12zm-39.65-1.91c.3-.08.59-.2.63-.26.04-.06.07-.57.06-1.13 0-1.47.34-2.02 1.39-2.25.3-.06.88-.23 1.28-.37.91-.33 1.71-.4 2.11-.19.18.1.57.46.89.82.3.36.78.88 1.04 1.16.48.5.5.51.82.31a8.42 8.42 0 0 0 1.54-2.23c0-.21-.33-.74-.65-1.03-.37-.34-2.12-2.2-3.83-4.09a90.58 90.58 0 0 0-1.64-1.76c-.8-.82-2.93-3.16-3.38-3.7-.22-.27-.6-.62-.83-.77-.37-.25-.49-.27-.88-.16a38 38 0 0 1-1.02.27c-1.12.28-1.16.33-1.09 1.26l.26 3.48c.1 1.45.25 2.93.32 3.28.07.34.16 1.3.2 2.14.04.83.1 1.68.12 1.9.03.2.09.9.14 1.57.05.71.16 1.34.28 1.54.18.32.27.35.94.35.4 0 .99-.06 1.3-.14zm-.07-6.64c-.26-.21-.3-.37-.35-1.49-.1-2.35.21-2.79 1.27-1.75 1.13 1.12 2 2.19 1.95 2.41-.1.5-1.7 1.22-2.11.96-.15-.1-.27-.1-.35-.02-.08.08-.23.04-.41-.11zm15 3.37c.24-.06.87-.17 1.39-.25 1.56-.24 1.87-.5 1.19-.97a35.1 35.1 0 0 1-4.31-4.44c-.39-.79-.13-1.03.58-.53.18.12.61.33.96.46.35.12 1 .39 1.43.58a6.85 6.85 0 0 1 1.79.86c.45.28.92.51 1.04.51s.22.05.22.1c0 .06.2.17.44.26s.6.29.79.44.52.36.72.47c.21.1.44.23.5.28l.88.54c.7.41.81.44 1.7.4 1.68-.06 1.6-.25-1.85-4.23a98.76 98.76 0 0 0-1.4-1.6c-.13-.14-.42-.5-.64-.82-.21-.31-.72-.97-1.11-1.46-3.41-4.24-3.68-4.55-4.24-4.78-.52-.21-2.59-.13-2.83.1-.22.23.01.61 1.16 1.93.47.55.95 1.14 1.06 1.3.11.18.4.54.62.8.48.54.52.78.17.97-.3.16-1.2.17-1.49.02-.12-.06-.5-.25-.85-.4s-.77-.4-.95-.5c-.43-.3-1.08-.66-2.77-1.55-.8-.42-1.68-.9-1.95-1.08a7.44 7.44 0 0 0-2.24-1.02c-.85 0-1.13.35-.79 1 .25.49 1.2 1.75 1.56 2.07.15.13.27.28.27.33 0 .1 1.1 1.79 1.24 1.9a39.66 39.66 0 0 1 2.5 3.33c.32.49.7 1.03.86 1.2.15.17.39.51.52.76.13.24.38.6.57.82.19.2.44.55.57.77.37.62.7 1.1.98 1.4.27.31.54.32 1.71.03zm-50.26-.37a.14.14 0 0 0-.04-.18c-.06-.04-.15.01-.19.11-.08.2.11.27.23.07zm72.26-2.31c.11-.15.2-.54.2-.87 0-.69-.27-1.06-.85-1.18-.2-.04-.45-.13-.57-.2a2.2 2.2 0 0 0-.78-.11c-.31 0-.7-.05-.86-.11-.16-.07-.61-.21-1-.33a4.3 4.3 0 0 1-1.02-.42c-.35-.26-.46-.32-2.02-1.23a6.2 6.2 0 0 1-1.85-1.46c-.67-.8-.7-.99-.36-2.11.15-.48 1.35-2.12 2.04-2.78.77-.74.63-1.01-.93-1.86-.38-.2-.82-.45-.96-.54-.23-.15-.34-.13-.81.13-.87.48-2.57 2.59-3.28 4.05-.21.44-.6 1.23-.88 1.76a5.2 5.2 0 0 0-.5 1.2c0 .27 1.4 1.8 2.32 2.51.71.56 2.55 1.7 2.74 1.7.15 0 1.22.41 2.06.8.96.45 1.15.51 2.65.83.54.11 1.99.5 2.03.55.02.01.57 0 1.24-.02 1.07-.03 1.23-.07 1.4-.31zm7.45-.23c.76-.07 2.14-.15 3.07-.17 1.67-.03 1.9-.1 1.9-.51 0-.07-.25-.48-.57-.91-.49-.66-.66-.8-1.05-.86l-.83-.16c-.21-.06-.8-.09-1.32-.07-.9.03-.96.01-1.57-.43-.36-.26-.74-.55-.85-.66-.26-.23-.43-.83-.26-.93.07-.04.61-.1 1.22-.12.6-.03 1.15-.1 1.22-.17.08-.08-.05-.44-.36-1.03-.5-.94-.82-1.18-1.55-1.13h-1.56l-1.24-.02-.44-.48a7.2 7.2 0 0 1-.76-1c-.35-.6-.26-.92.28-.92.15 0 .46-.06.68-.14.56-.2.52-.59-.13-1.23-.43-.44-.6-.52-1.04-.53-.28 0-.66-.03-.83-.06l-1.33-.11c-.56-.04-1.32-.13-1.7-.2a9.07 9.07 0 0 0-1.35-.13c-.65 0-.67.02-.67.35 0 .22.18.58.47.94l1.07 1.32a21.5 21.5 0 0 1 1.87 2.62c.15.27.54.83.87 1.26.32.42.72 1 .9 1.27.16.28.5.79.76 1.13.26.35.59.86.73 1.14.26.48.96 1.52 1.35 2 .2.24.05.24 3.02-.06zM23.13 162.36c-.14-.1-.47-.6-.73-1.13a7.27 7.27 0 0 0-.74-1.24c-.16-.17-.38-.5-.5-.74a2.2 2.2 0 0 0-.4-.6.57.57 0 0 1-.19-.39c0-.12-.08-.29-.18-.37a.66.66 0 0 1-.2-.43c0-.15-.12-.44-.25-.65-.13-.2-.35-.63-.5-.94a21.4 21.4 0 0 0-1.14-2.15 3.88 3.88 0 0 1-.37-.81c-.1-.28-.27-.64-.4-.81s-.23-.4-.23-.5c0-.12-.09-.37-.2-.57-.1-.2-.18-.41-.18-.47 0-.07-.14-.34-.32-.62-.17-.28-.4-.74-.5-1.04-.1-.3-.33-.8-.5-1.1s-.44-.82-.58-1.14a68 68 0 0 0-.5-1.07 12.74 12.74 0 0 1-.88-2.1c0-.1-.23-.61-.5-1.15s-.51-1.04-.51-1.1c0-.06-.16-.36-.36-.66-.2-.3-.5-.9-.7-1.36s-.42-.9-.51-1a1.8 1.8 0 0 1-.25-.7c-.04-.28-.3-.96-.57-1.51l-.8-1.7c-.96-2.12-.88-1.9-1.2-3.19a5.7 5.7 0 0 0-.4-1 15.5 15.5 0 0 1-.94-2.69c-.05-.2-.25-.72-.45-1.15-.44-.94-.51-1.42-.24-1.6.35-.22.58 0 1.06 1 .81 1.75.98 2.06 1.22 2.27.13.12.23.3.23.4 0 .23.42 1.2 1.48 3.39.43.91.8 1.77.8 1.91 0 .15.04.3.1.33.15.1.82 1.5 1.02 2.11.08.26.22.52.3.6.1.07.3.43.45.8.41.94.59 1.29 1.22 2.43.3.55.7 1.32.88 1.7.52 1.12 2.06 4.29 2.46 5.07.2.39.37.8.37.9 0 .23.34 1.01.64 1.47.26.4 1.01 2.18 1.42 3.37.18.5.4 1.04.52 1.2.1.15.2.35.2.44 0 .1.23.64.5 1.2.29.57.6 1.3.72 1.6s.29.8.41 1.08c.3.71.68 1.62 1.09 2.65.19.48.4.93.45 1 .15.18.13.63-.05.8-.2.2-.24.2-.56-.04zm127.23-20.81c-.14-.18-.3-.5-.34-.73a4.55 4.55 0 0 0-.76-1.85c-.22-.31-.67-1.08-1-1.7-.32-.63-.7-1.25-.82-1.39a6.6 6.6 0 0 1-.64-1.13 9.13 9.13 0 0 0-.69-1.26c-.46-.61-2.58-4.65-2.58-4.93 0-.07-.16-.3-.36-.5-.2-.2-.46-.63-.56-.94s-.65-1.45-1.2-2.53a66.85 66.85 0 0 1-1.46-3.08 63 63 0 0 0-1.29-2.76 14.87 14.87 0 0 1-1.05-2.43c-.35-.7-1.07-2.3-1.28-2.82-.09-.25-.32-.7-.5-1.02a5 5 0 0 1-.42-.89c-.05-.16-.3-.72-.54-1.25-.59-1.2-.74-1.57-.92-2.26a4 4 0 0 0-.3-.82c-.1-.14-.35-.74-.57-1.33s-.52-1.3-.65-1.58c-.13-.27-.35-.78-.48-1.13-.14-.35-.51-1.17-.84-1.83l-.72-1.46c-.17-.36-.08-.87.14-.87.1 0 .38.37.62.82a2937.9 2937.9 0 0 1 1.64 3.1c.07.13.3.7.53 1.25s.45 1.06.5 1.13c.06.07.26.53.45 1.01.19.49.45 1.04.58 1.22.13.18.23.37.23.42 0 .05.3.64.68 1.3.37.68.72 1.37.77 1.54.06.17.32.67.58 1.11.27.44.57 1.05.68 1.35.1.3.3.8.43 1.1.13.3.28.65.32.8.04.13.27.55.51.92s.44.71.44.77c0 .05.2.38.42.71.4.58.63 1.05 1.06 2.07.1.24.23.52.3.63.06.1.23.45.38.78s.35.66.44.74c.1.08.18.23.18.32 0 .1.15.41.34.7l.44.66.93 1.9c.47.98 1.1 2.13 1.4 2.56.3.44.54.85.54.92 0 .13.38.76.52.88.04.03.15.29.24.56.16.5.49 1.09 1.41 2.5.27.41.48.82.48.92 0 .15.4.94.63 1.25.05.07.13.3.18.5.05.2.2.52.34.7.13.2.24.43.24.52 0 .1.07.31.16.49.1.17.24.57.34.88.1.31.32.75.49.98.28.38.44.86.6 1.87.06.32 0 .44-.27.66-.45.35-.62.34-.92-.05zm-123.7-6.87a8.3 8.3 0 0 1-3.12-3.46l-.84-1.78a6.83 6.83 0 0 1-.49-1.2.5.5 0 0 0-.1-.31 6.38 6.38 0 0 1-.45-1.07c-.19-.52-.47-1.23-.64-1.59a5.95 5.95 0 0 1-.4-1.13 17.9 17.9 0 0 0-.82-2.5 5.72 5.72 0 0 1-.24-.9c-.09-.4-.2-.8-.27-.87-.05-.06-.1-.28-.1-.48 0-.2-.08-.51-.17-.7a3.5 3.5 0 0 1-.25-.85c-.1-.69-.43-1.75-.73-2.43-.14-.3-.33-.9-.44-1.33l-.3-1.15-.3-1.13c-.12-.41-.26-.8-.33-.87-.07-.07-.13-.28-.13-.45 0-.29-.22-1.09-.51-1.84a28.3 28.3 0 0 1-.38-1.2c-.16-.52-.36-1.08-.45-1.26-.44-.84-.9-2.01-.98-2.52a4.4 4.4 0 0 0-.45-1.2c-.49-.86-.58-1.2-.33-1.2.11 0 .2.09.2.2 0 .1.05.18.12.18.07 0 .1-.08.05-.19-.09-.23-.04-.23.4 0 .32.16.92 1.02 1.8 2.59.5.9 1.4 2.23 2.37 3.53.5.66 1 1.37 1.1 1.57.12.21.41.64.65.95.6.77 1.19 1.66 1.75 2.65.26.45.9 1.44 1.42 2.2.52.77 1.29 1.96 1.71 2.65.42.7.93 1.5 1.12 1.77.2.28.52.78.7 1.13.36.68.85 1.35 2.19 2.97.48.59.88 1.13.88 1.2 0 .15.74 1.34 1.14 1.85.14.19.33.53.4.76.09.22.38.75.66 1.17.5.72.52.79.5 1.68-.02.64-.08.99-.22 1.14-.11.12-.2.3-.2.4 0 .17-.83 1.3-1.23 1.65-.12.12-.45.44-.72.73-.27.28-.6.51-.72.51-.13 0-.41.12-.64.26-.6.36-1.3.32-2.2-.13zm3.51-2.27c.52-.28.65-.82.56-2.22-.09-1.3-.1-1.3-.68-2.1l-.8-1.1a24.53 24.53 0 0 0-1.47-1.95c-.18-.21-.42-.55-.52-.76-.1-.2-.39-.63-.63-.95-.96-1.2-1.38-1.9-2.46-4a8.26 8.26 0 0 0-.77-1.3c-.1-.08-.18-.23-.18-.32 0-.28-1.45-2.46-2.07-3.11a3.55 3.55 0 0 1-.57-.7c0-.05-.18-.2-.4-.33-.34-.2-.4-.2-.58-.04-.14.15-.15.25-.05.45.08.14.14.35.14.46 0 .12.14.52.32.9.17.38.31.8.31.92 0 .3.27 1.06.73 2.06.2.43.44 1.02.53 1.3.18.53.24.68.93 2.33l.82 2.01c.2.52.59 1.43.84 2.02.26.6.5 1.24.56 1.45.12.5.48 1.2.8 1.54.16.18.22.37.17.56-.04.18.03.45.19.7.35.57 2.2 2.16 2.68 2.3.43.14 1.24.07 1.6-.12zm118.81-4.05c-.08-.09-.15-.2-.15-.26 0-.18-.78-1.8-1.21-2.51a4.11 4.11 0 0 1-.43-.84c0-.08-.31-.68-.7-1.34a7.73 7.73 0 0 1-.69-1.39c0-.1-.1-.25-.23-.31a7.01 7.01 0 0 1-.96-1.55c-.75-1.46-1.78-3.4-2.16-4.08a5.47 5.47 0 0 1-.6-1.25 153.59 153.59 0 0 1-4.24-8.5c0-.09-.23-.64-.51-1.22a9.5 9.5 0 0 1-.5-1.17c0-.07-.14-.31-.3-.55a2.63 2.63 0 0 1-.36-1c-.04-.31-.4-1.26-.84-2.17a15.68 15.68 0 0 1-.88-2.05 2.63 2.63 0 0 1-.27-.56 26 26 0 0 0-.46-1.1c-.17-.37-.3-.71-.3-.76 0-.04-.1-.2-.23-.34s-.31-.53-.4-.87c-.14-.53-.14-.63.04-.81.2-.19.23-.18.51.08.17.16.43.56.57.9.14.32.34.66.44.74a1 1 0 0 1 .26.45 16.66 16.66 0 0 0 1.16 2.61c.1.29.62 1.3 1.38 2.7a23.63 23.63 0 0 1 1.33 2.77c.13.27.29.64.36.82l.23.5.33.63.4.76.8 1.7.76 1.58c.52.84 1.93 3.45 1.99 3.68.04.16.2.48.38.7.28.4.47.73 1.25 2.24.15.27.62 1.27 1.05 2.2.43.94.85 1.8.94 1.9.1.1.31.58.5 1.07.32.85.68 1.68 1.02 2.33.1.17.28.65.42 1.05.14.4.44 1 .65 1.32.34.51.39.69.35 1.29-.03.58-.07.7-.29.73a.54.54 0 0 1-.4-.12zM39.23 118.33c0-.06-.12-.15-.28-.22-.16-.07-.46-.48-.7-.93-.22-.44-.59-1.1-.82-1.45-.24-.36-.75-1.24-1.16-1.97-.4-.73-.89-1.54-1.09-1.8-.2-.25-.36-.53-.36-.61 0-.09-.2-.53-.43-.99l-.82-1.58a5.7 5.7 0 0 1-.39-.85c0-.06-.27-.54-.6-1.08a16.33 16.33 0 0 1-1.6-3.16c-.05-.22-.14-.43-.2-.47a6.66 6.66 0 0 1-.88-1.72c0-.16-1.03-2.27-1.24-2.55a68.15 68.15 0 0 0-1.54-3.3 32 32 0 0 1-1.18-2.58 2.97 2.97 0 0 0-.39-.8 2.26 2.26 0 0 1-.31-.58c0-.06-.15-.39-.34-.72a10.66 10.66 0 0 1-1.17-2.5 6.7 6.7 0 0 0-.33-.94c-.17-.35-.67-1.81-.76-2.2-.08-.37.12-.62.42-.52.22.07.45.4 1.14 1.65l.55.94c.18.31.9 1.68 1.6 3.03 1.65 3.24 1.57 3.08 2.04 4.1l.51 1.07c.17.29 1.94 3.86 2.4 4.84.22.48.51.98.64 1.1.13.13.23.35.23.48s.06.28.12.32c.07.05.19.32.27.61.07.3.32.84.55 1.22.23.39.45.91.5 1.17.05.27.19.53.32.6.13.07.3.34.38.6.08.26.37.93.64 1.48 1.67 3.47 2.01 4.22 2.01 4.35 0 .07.11.35.25.6l.62 1.3 1.1 2.3c.65 1.37.76 1.85.43 1.85-.07 0-.13-.04-.13-.1zm103.2-26.87c-1.3-.45-3.83-3.2-3.83-4.15 0-.1-.17-.56-.37-1.04-.2-.49-.34-.98-.3-1.13.05-.18 0-.26-.12-.26-.2 0-.72-.97-.72-1.33 0-.1-.12-.46-.27-.78-.15-.33-.37-.93-.49-1.35s-.3-1.02-.42-1.33c-.1-.31-.26-.94-.34-1.39a5.42 5.42 0 0 0-.34-1.2c-.62-1.2-.65-1.28-.58-1.8.04-.3.02-.67-.06-.82a29.49 29.49 0 0 0-1.46-4.26c-.11-.23-.2-.5-.2-.62s-.17-.72-.38-1.34a7.5 7.5 0 0 1-.38-1.56c0-.24-.13-.67-.29-.95a6.06 6.06 0 0 1-.45-1.07c-.1-.31-.34-.96-.55-1.45s-.43-1.08-.48-1.32l-.5-2.02c-.22-.87-.43-1.8-.49-2.08a5.4 5.4 0 0 0-.45-1.18c-.3-.54-.34-.74-.24-1 .06-.2.22-.36.36-.38.2-.03.4.21.91 1.1a9 9 0 0 1 .67 1.27c0 .07.05.13.12.13.06 0 .26.25.44.55.18.3.41.59.51.63.1.04.19.15.19.24 0 .18.3.88.51 1.22a18.92 18.92 0 0 0 1.24 2.2c.35.56.64 1.08.64 1.18 0 .09.25.66.56 1.26s.59 1.27.63 1.47c.05.2.25.6.44.88.4.59 1.15 1.82 1.15 1.9 0 .03.17.3.38.62s.37.6.37.63c0 .05.2.36.44.7.51.73 1.33 2.26 1.33 2.49 0 .08.13.35.28.6.73 1.13 1 1.6 1.18 2.04.11.27.42.79.7 1.15.27.36.49.68.49.72 0 .03.37.66.82 1.4s.82 1.42.82 1.51c0 .1.05.2.1.24.06.03.3.44.52.9.23.45.69 1.2 1.03 1.64.34.44.62.88.62.97 0 .1.05.22.1.29.26.27.43 1.16.47 2.47l.04 1.4-.9.91c-.75.76-1.03.96-1.6 1.13-.85.25-1.04.25-1.86-.03zm2.32-2.83c.39-.4.4-.46.35-1.2-.07-.8-.33-1.36-1.1-2.3-.2-.24-.35-.5-.35-.56 0-.15-.64-1.42-1.39-2.78a149.24 149.24 0 0 1-3.69-7.19c-.2-.41-.4-.84-.47-.94-.07-.1-.24-.42-.37-.7s-.34-.6-.45-.69c-.1-.08-.2-.22-.2-.3 0-.22-.8-1.33-.97-1.34-.2 0-.22 1.08-.03 1.2.07.04.12.23.12.42s.06.4.12.47c.06.06.25.54.43 1.06s.58 1.57.9 2.33c.4.99.52 1.43.43 1.54-.15.19-.04.42.2.42.1 0 .21.18.26.41.05.23.16.52.24.66.1.14.26.65.38 1.14.18.75.71 2.05 1.1 2.7.33.58.65 1.39 1.18 2.96.33.96.67 1.94.77 2.17.24.57.84.93 1.57.93.48 0 .64-.06.97-.41zM15.13 31.57a8.67 8.67 0 0 1-.86-1.75c0-.08-.17-.35-.36-.6a4 4 0 0 1-.52-.87c-.45-1.19-.69-1.71-.94-2.11-.16-.24-.33-.6-.37-.8-.1-.36-.52-1.33-1.29-2.9a5.2 5.2 0 0 1-.43-1.1.53.53 0 0 0-.18-.36c-.1-.08-.21-.3-.26-.48s-.2-.49-.33-.68-.24-.43-.24-.53c0-.11-.05-.23-.12-.27-.06-.04-.18-.29-.26-.54-.15-.5-.42-1.1-1.17-2.68-.25-.52-.63-1.42-.84-1.99-.2-.57-.52-1.3-.7-1.64a3.19 3.19 0 0 1-.32-.74c0-.09-.22-.6-.5-1.14-.26-.54-.7-1.61-.95-2.37-.26-.77-.57-1.6-.7-1.86a2.24 2.24 0 0 1-.24-.65c0-.1-.15-.5-.32-.9-.3-.67-.32-1.2-.06-1.2.2 0 .63.66 1.19 1.82.3.63.7 1.36.88 1.63.18.26.33.51.33.56 0 .14.58 1.2.94 1.74.17.26.58 1.01.9 1.68l.69 1.4.7 1.39c.31.66.68 1.4.8 1.64.11.24.34.67.5.94.16.28.45.88.64 1.33.62 1.46 1.2 2.7 1.4 3.02.12.18.3.6.42.95.12.34.32.83.44 1.07.13.24.56 1.27.96 2.27s.82 2.04.95 2.3c.13.25.35.96.5 1.57.14.61.3 1.28.37 1.5.32 1.07.36 1.36.24 1.59-.2.37-.57.27-.89-.24zm-.8-2.7c-.05-.06-.13-.08-.2-.04s-.09.13-.05.2c.04.06.13.08.2.04s.08-.13.04-.2zm-3.2 2.34a2.55 2.55 0 0 1-.46-.82c-.04-.2-.16-.42-.26-.5s-.28-.36-.39-.61c-.1-.25-.62-1.3-1.13-2.33-.51-1.04-.93-2-.93-2.15 0-.15-.07-.38-.17-.52a9.27 9.27 0 0 1-.96-1.9c0-.2-.31-.93-.95-2.26-.24-.48-.51-1.17-.62-1.53a8.7 8.7 0 0 0-.57-1.39c-.21-.4-.39-.8-.39-.9 0-.24-.5-1.41-.77-1.8a1.3 1.3 0 0 1-.24-.51c0-.1-.08-.33-.17-.51-.1-.19-.22-.53-.26-.76-.16-.75-.74-2.3-1.1-2.91a4.1 4.1 0 0 1-.36-.7c0-.04-.14-.43-.3-.84a4.34 4.34 0 0 1-.32-1.04c0-.16-.11-.53-.24-.82-.57-1.3-.69-2.19-.32-2.33.12-.04.3-.02.41.05.28.17.85 1.22 1.11 2.06.12.38.52 1.3.89 2.04s.67 1.4.67 1.5c0 .08.1.35.23.6s.48 1 .77 1.66c.29.66.75 1.64 1.02 2.17.27.54.5 1.12.5 1.29 0 .17.05.34.12.39.15.09.63 1.05.63 1.25 0 .08.2.5.43.96.24.44.5 1.12.59 1.5.09.38.38 1.12.64 1.65.27.53.52 1.15.57 1.39.05.23.2.71.33 1.06.13.35.27.78.31.95.04.17.15.43.24.56.1.14.17.35.17.47s.17.53.37.9c.2.36.4.86.45 1.1.05.24.2.66.33.93s.24.58.24.68.15.6.33 1.12c.29.84.3.97.14 1.14-.16.16-.23.12-.57-.3zm17.56-8.03c-.55-.5-1.01-.95-1.03-1a4.1 4.1 0 0 0-.35-.44c-.18-.2-.44-.55-.59-.8s-.37-.53-.5-.65a23.91 23.91 0 0 1-2.25-4.96c-.19-.43-.75-2.25-.75-2.45 0-.19-.07-.41-.5-1.72-.14-.42-.26-.9-.26-1.05 0-.3-.55-2.25-.76-2.72-.07-.14-.2-.63-.3-1.08-.1-.45-.3-1.15-.45-1.56a7.33 7.33 0 0 1-.34-1.39 3.95 3.95 0 0 0-.3-1.08c-.3-.6-.2-1.3.19-1.24.3.04 2.38 2.27 5.15 5.52.5.59 1.1 1.23 1.32 1.43.23.2.41.44.41.52 0 .08.23.37.5.64s.51.56.51.64c0 .08.14.2.32.28.17.08.31.23.31.33s.3.49.66.87a38.02 38.02 0 0 1 2.63 2.98c.12.18.36.46.54.63.18.17.33.36.33.43s.14.3.31.53c.36.47 1 1.81 1.2 2.52a3.85 3.85 0 0 1-.73 3.4c-.68.77-1.69 1.5-2.37 1.75-.34.12-.77.3-.97.4-.64.33-.89.23-1.93-.73zm2.71-3.24c.47-.33.92-1.69.78-2.32a3.9 3.9 0 0 0-.91-1.53l-.68-.76a60.57 60.57 0 0 1-2.77-3.47c-.27-.38-.68-.89-.9-1.13-.23-.25-.42-.5-.42-.57 0-.07-.16-.28-.35-.46-.2-.18-.75-.84-1.23-1.47a5.82 5.82 0 0 0-1.03-1.16c-.4 0-.32.32.7 2.84.1.28.3.65.42.84s.23.42.23.53.05.3.12.43c.25.45.74 1.76.95 2.49.11.41.29.98.39 1.26.1.28.18.58.18.66 0 .3 1.43 3.13 1.8 3.56.82.96 1.64 1.04 2.72.26z"/>
</svg>
