<?xml version="1.0" encoding="UTF-8"?>
<svg xmlns="http://www.w3.org/2000/svg" viewBox="0 0 358.54 74.61">
  <defs>
    <style>.a{fill:#ee2e24;}</style>
  </defs>
  <title>aarp-logo</title>
  <path class="a" d="M316.29,27.92c0-8.11-4.34-14-12.59-14h-5.56V41.72h5.56C311.43,41.81,316.29,36.54,316.29,27.92Zm-79.73,0c0-7.42-3.74-14-14.16-14h-4V41.72h4C231.78,41.81,236.56,36.54,236.56,27.92ZM152.22,44.48l-8.34-22.17-8.51,22.17a72.47,72.47,0,0,1,8.51-.6A65.42,65.42,0,0,1,152.22,44.48Zm-67.84.43L76,22,67.79,44c1.39-.08,2.87-.08,4.52-.08A69.47,69.47,0,0,1,84.38,44.91Zm260-17c0,16-12.68,26.22-33.61,26.22H298.14V76.22H241.33l-22.93-30v30H163.6l-6-16.47a78.89,78.89,0,0,0-13.72-1.21,84.84,84.84,0,0,0-14,1.21l-6.17,16.47h-28L91.24,63.71a55.82,55.82,0,0,1,14.68,6l1.13-2.84a65.53,65.53,0,0,0-32.92-8.46c-13.11,0-21.45,3.19-35,3.19A70.77,70.77,0,0,1,1,50.43L6.91,36.2C8.38,37.15,23.06,46.55,40,46.55c2.86,0,5.3-.17,7.64-.35L66,1.7H96.46l18.15,46.75L133.8,1.7h30.58l26.75,68.74V1.7h36.48c24.84,0,37,11.3,37,26.22S252.8,48.62,249.5,50.09L270.86,73.2V1.7h39.87C332.71,1.7,344.34,12.74,344.34,27.92ZM60.84,62.16H61L55.81,76.31H35l5-12.08h.17A132.24,132.24,0,0,0,60.84,62.16Z" transform="translate(-1 -1.7)"></path>
  <path class="a" d="M350.6,8.94h.95c1.13,0,2.09-.43,2.09-1.46,0-.78-.52-1.47-2.09-1.47a2.58,2.58,0,0,0-.95.09Zm0,4.66h-1.39V5.23a18.78,18.78,0,0,1,2.43-.17,4.46,4.46,0,0,1,2.61.6A2,2,0,0,1,355,7.39a2.15,2.15,0,0,1-1.65,2.07v.09c.78.17,1.21.77,1.39,2.07a7.68,7.68,0,0,0,.52,2.07H353.9a7,7,0,0,1-.61-2.16,1.6,1.6,0,0,0-1.82-1.47h-1V13.6ZM352,2.9a6.21,6.21,0,0,0-6.08,6.39,6.09,6.09,0,1,0,12.16,0A6.21,6.21,0,0,0,352,2.9Zm.09-1.2a7.48,7.48,0,0,1,7.46,7.59,7.51,7.51,0,1,1-15,0A7.44,7.44,0,0,1,352.08,1.7Z" transform="translate(-1 -1.7)"></path>
</svg>
