<svg viewBox="0 0 80.3 20.3" width="182" height="46" xmlns="http://www.w3.org/2000/svg">
  <path class="logo-text" fill="#6d7071" d="M25.5 8.9l.8-.1V.9l-.8-.1V.4H32V2h-.1C31.3 1.5 30.6.9 29 .9h-.7v3.6h.5a3 3 0 0 0 1.9-.5h.1v1.5h-.1c-.5-.3-1-.5-2-.5h-.5v3.8h.6c1.6 0 2.6-.6 3.3-1.3h.1l-.1 1.8h-6.7l.1-.4zm10.5.4h-3V9l.6-.1V3.7l-.6-.2v-.3l2.3-.4.1.1v1c.5-.6 1.3-1 2.2-1 .9 0 1.4.2 1.6 1a3 3 0 0 1 2.2-1c1.1 0 1.7.4 1.7 1.9V9l.6.1v.3h-3v-.3l.5-.1V4.9c0-.8-.2-1.1-.8-1.1-.5 0-.9.2-1.2.4v4.6l.5.1v.3h-3v-.3l.5-.1V4.9c0-.8-.2-1.1-.8-1.1-.5 0-.9.2-1.2.4v4.7l.6.1c.2 0 .2.3.2.3zm11.5.2c-2.1 0-3.1-1.3-3.1-3.2 0-2.2 1.4-3.5 3.1-3.5 1.9 0 2.8 1.1 2.7 3h-4c0 1.7.9 2.5 2 2.5 1 0 1.5-.4 1.9-.7.1 0 .1.3 0 .4-.1.4-.9 1.5-2.6 1.5zm-1.2-4.2l2.1-.1c0-1.4-.3-1.9-.9-1.9-.7-.1-1.2.5-1.2 2zM50.7 9l.6-.1V3.7l-.6-.2v-.3l2.3-.4.1.1v1.4c.3-.8 1-1.5 1.7-1.5l.6.1v1.5h-.1l-.7-.2c-.5 0-1 .2-1.3.5v4.2l.7.1v.3h-3.2l-.1-.3zm5.4 0V7.6h.2c.3.5.8 1.4 1.8 1.4.7 0 1-.2 1-.8 0-.6-.4-.8-1.5-1.3-.7-.3-1.5-.8-1.5-2 0-1.4 1.2-2.1 2.5-2.1a4 4 0 0 1 1.7.3v1.3h-.1c-.4-.6-.9-1.1-1.6-1.1-.5 0-1 .3-1 .8 0 .6.5.8 1.3 1.2 1.1.5 1.9 1 1.9 2.1 0 1.4-1.1 2.1-2.5 2.1-1 0-1.6-.2-2.2-.5zm5.3-2.8c0-2.1 1.4-3.4 3.2-3.4 1.9 0 3.3 1.2 3.3 3.3 0 2.1-1.4 3.4-3.2 3.4a3.1 3.1 0 0 1-3.3-3.3zm4.6 0c0-2.3-.5-2.9-1.4-2.9-.8 0-1.3.7-1.3 2.9s.5 2.9 1.4 2.9c.8-.1 1.3-.8 1.3-2.9zM68.6 9l.6-.1V3.7l-.6-.2v-.3l2.3-.4.1.1v1a3 3 0 0 1 2.3-1c1.1 0 1.7.4 1.7 1.9V9h.7v.3h-3V9l.6-.1v-4c0-.8-.2-1.1-.9-1.1-.5 0-1 .2-1.3.4v4.7l.6.1v.3h-3l-.1-.3zm-43 6.6c0-2.7 2.1-4.7 4.5-4.7 1.2 0 2.1.2 2.7.5v1.7h-.1c-.7-.9-1.3-1.6-2.5-1.6-1.6 0-2.5 1.6-2.5 4 0 2.3.8 4.1 2.5 4.1 1.2 0 1.9-.9 2.5-1.7h.1v1.7c-.5.3-1.7.6-2.7.6-2.4-.1-4.5-1.7-4.5-4.6zm8.1 1.2c0-2.1 1.4-3.4 3.2-3.4 1.9 0 3.3 1.2 3.3 3.3 0 2.1-1.4 3.4-3.2 3.4-1.8 0-3.3-1.2-3.3-3.3zm4.7 0c0-2.3-.5-2.9-1.4-2.9-.8 0-1.3.7-1.3 2.9s.5 2.9 1.4 2.9c.8 0 1.3-.8 1.3-2.9zm2.3 2.8l.6-.1v-7.8l-.6-.2v-.3l2.4-.5.1.1v8.7l.6.1v.3h-3.1v-.3zm3.5 0l.6-.1v-7.8l-.6-.2v-.3l2.4-.5.1.1v8.7l.6.1v.3h-3.1v-.3zm6.6.5c-2.1 0-3.1-1.3-3.1-3.2 0-2.2 1.4-3.5 3.1-3.5 1.9 0 2.8 1.1 2.7 3h-4c0 1.7.9 2.5 2 2.5 1 0 1.5-.4 1.9-.7.1 0 .1.3 0 .4-.2.4-.9 1.5-2.6 1.5zM49.5 16l2.1-.1c0-1.4-.3-1.9-.9-1.9-.6-.1-1.1.5-1.2 2zm4.5 1c0-2.3 2-3.5 3.6-3.5l1.6.2v1.2h-.1c-.4-.5-.8-.9-1.5-.9-.9 0-1.8.8-1.8 2.5 0 1.6.8 2.5 1.9 2.5.8 0 1.3-.3 1.7-.6 0 0 .1.3 0 .4-.2.5-1.1 1.4-2.5 1.4-1.7-.1-2.9-1.4-2.9-3.2zm7.2 1.4v-4.1h-.9V14l2.3-2h.5v1.5h1.8l-.1.7H63v3.9c0 .6.2 1 .9 1 .5 0 .7-.1.9-.2v.4c-.3.4-.9.8-1.8.8-1.3 0-1.8-.7-1.8-1.7zm4 1.2l.6-.1v-5.2l-.6-.2v-.3l2.4-.5.1.1v6.1l.6.1v.3h-3c-.1.1-.1-.3-.1-.3zm.5-7.6c0-.6.5-1 1-1 .6 0 1 .4 1 1s-.5 1-1 1c-.5-.1-1-.5-1-1zm3.1 2l-.4-.1v-.3h3.2v.3l-.8.1.6 1.7.8 2.4.7-2.2.6-1.9-.7-.1v-.3h1.7v.3l-.3.1-.6 1.7-1.5 4.2h-1L68.8 14zm8.8 6.1c-2.1 0-3.1-1.3-3.1-3.2 0-2.2 1.4-3.5 3.1-3.5 1.9 0 2.8 1.1 2.7 3h-4c0 1.7.9 2.5 2 2.5 1 0 1.5-.4 1.9-.7.1 0 .1.3 0 .4-.1.4-.9 1.5-2.6 1.5zM76.3 16l2.1-.1c0-1.4-.3-1.9-.9-1.9-.6-.1-1.1.5-1.2 2z" />
  <path fill="#de1f26" d="M9.6 4.1H0V0h9.6v4.1zm0 4H0v4.1h9.6V8.1zm0 8.2H0v4.1h9.6v-4.1zM20.3 0a10.2 10.2 0 1 0 0 20.4V0z" /></svg>

