<svg xmlns="http://www.w3.org/2000/svg" width="300" height="123" fill="none" viewBox="0 0 134 55"><g clip-path="url(#a)"><path fill="#00274D" d="M0 1.329v35.84c4.026 2.408 8.271 4.576 12.706 6.324V1.329H0Z"/><path fill="#B7C726" d="M43.952 51.404c-1.818 1.348-3.266 1.898-5.594 2.557A27.083 27.083 0 0 1 30.896 55a30.99 30.99 0 0 1-10.868-1.958c-2.827-1.059-5.264-2.477-7.322-4.265v4.884H0V40.166c4.555 2.557 7.941 4.106 12.986 6.024 9.57 3.646 20.418 5.394 30.966 5.204v.01ZM66.767 48.247c-.989.28-1.968.55-2.967.8v4.614h12.647v-8.49c-3.147 1.198-6.393 2.257-9.68 3.076ZM102.408 42.873V32.005h21.737V21.876h-13.186c-5.684 6.543-13.425 12.626-20.747 16.662v15.123h36.52V42.873h-24.324ZM124.964 1.33c-1.848 3.716-3.866 7.272-6.204 10.648h6.633V1.329h-.429Z"/><path fill="#00274D" d="M120.738 1.329c-.729 1.688-2.047 4.215-3.346 6.433-.779 1.328-1.738 2.936-2.577 4.215h-12.397v9.9h4.705C101.869 27.8 96.695 32.134 90.222 36.31V12.127H76.457l.05 31.256c-3.187 1.478-6.064 2.377-9.34 3.306-.99.25-2.388.62-3.387.85l.03-35.412H49.026V8.84l-5.773 6.094c-1.089-1.379-2.507-2.478-4.255-3.287-1.749-.819-3.437-1.228-5.065-1.228-.84 0-1.688.08-2.547.23-.87.14-1.639.429-2.328.849-.689.419-1.268.958-1.738 1.628-.47.659-.709 1.508-.709 2.547 0 .889.19 1.628.56 2.217.369.59.908 1.11 1.628 1.549.709.45 1.558.849 2.547 1.218.989.37 2.098.76 3.326 1.15 1.778.589 3.626 1.248 5.544 1.957 1.918.72 3.676 1.668 5.244 2.847 1.579 1.179 2.887 2.647 3.926 4.395 1.029 1.748 1.548 3.936 1.548 6.543 0 3.007-.549 5.604-1.658 7.801-.979 1.938-1.588 2.937-3.166 4.286-3.077 0-7.133-.24-10.27-.57-7.7-.799-14.363-2.297-21.276-4.904l5.035-5.135c1.278 1.579 2.966 2.897 5.054 3.956 2.098 1.059 4.186 1.588 6.253 1.588.93 0 1.848-.1 2.727-.29.89-.2 1.668-.519 2.338-.968a4.858 4.858 0 0 0 1.588-1.768c.39-.74.59-1.629.59-2.667 0-.98-.25-1.818-.74-2.508-.49-.689-1.198-1.318-2.108-1.888-.909-.569-2.047-1.078-3.396-1.548-1.358-.47-2.897-.979-4.625-1.518a43.162 43.162 0 0 1-4.914-1.918 16.515 16.515 0 0 1-4.286-2.847c-1.258-1.159-2.267-2.567-3.036-4.215-.76-1.649-1.14-3.657-1.14-6.024 0-2.907.59-5.394 1.769-7.472 1.189-2.067 2.737-3.766 4.655-5.094 1.928-1.329 4.095-2.308 6.513-2.917A29.293 29.293 0 0 1 34.153 0c2.956 0 5.973.54 9.06 1.628a23.177 23.177 0 0 1 5.813 2.987V1.329h71.722-.01ZM127.93 51.084c0-.38.07-.729.21-1.059.14-.33.34-.619.59-.859.249-.24.539-.44.869-.579a2.71 2.71 0 0 1 1.058-.22c.37 0 .73.07 1.059.22.33.14.62.34.869.58.25.24.44.529.59.858.14.33.209.69.209 1.06a2.62 2.62 0 0 1-.799 1.907 2.704 2.704 0 0 1-1.928.79c-.369 0-.729-.07-1.058-.21-.33-.14-.62-.33-.869-.58-.25-.24-.44-.53-.59-.859-.14-.33-.21-.68-.21-1.049Zm.43 0c0 .31.06.61.18.89a2.326 2.326 0 0 0 1.218 1.238c.28.12.58.18.899.18a2.255 2.255 0 0 0 1.629-.68 2.342 2.342 0 0 0 .669-1.628c0-.31-.06-.62-.18-.899-.12-.28-.29-.52-.489-.729a2.288 2.288 0 0 0-1.629-.67c-.319 0-.619.06-.899.18a2.35 2.35 0 0 0-.729.49c-.2.2-.369.45-.489.73-.12.279-.18.579-.18.898Zm1.239-1.548h1.078c.14 0 .28.02.42.05.13.03.26.08.37.16.109.07.189.16.259.28.06.11.1.25.1.419 0 .22-.06.41-.19.54a.969.969 0 0 1-.519.28l.829 1.338h-.669l-.719-1.279h-.4v1.279h-.549v-3.067h-.01Zm.999 1.338c.159 0 .309-.03.459-.09.14-.06.22-.18.22-.369 0-.17-.07-.28-.2-.34a.968.968 0 0 0-.41-.08h-.499v.88h.449-.019Z"/></g><defs><clipPath id="a"><path fill="#fff" d="M0 0h133.394v55H0z"/></clipPath></defs></svg>