<?xml version="1.0" encoding="UTF-8"?>
<svg xmlns="http://www.w3.org/2000/svg" width="449" height="165" viewBox="0 0 449 165" fill="none">
  <g clip-path="url(#clip0)">
    <path d="M154.592 0.341797H0V162.592H154.592V0.341797Z" fill="#000066"></path>
    <path d="M123.901 41.5918H30.8535V71.8419H123.901V41.5918Z" fill="#FFDF1B"></path>
    <path d="M123.901 90.7471H30.8535V120.997H123.901V90.7471Z" fill="#FFDF1B"></path>
    <path d="M216.3 16.3262C218.736 16.3262 219.06 16.3262 219.06 14.2637V9.45119C219.06 3.95118 218.736 3.60743 215.488 3.0918L214.026 2.91993C213.539 2.57618 213.539 1.20117 214.189 0.857422C217.112 1.0293 219.548 1.0293 221.821 1.0293C224.257 1.0293 226.53 1.0293 229.453 0.857422C230.103 1.0293 230.103 2.4043 229.616 2.91993L228.154 3.0918C224.906 3.60743 224.582 3.95118 224.582 9.45119V27.3262C224.582 32.8262 224.906 33.17 228.154 33.6856L229.94 33.8575C230.428 34.2012 230.428 35.5762 229.778 35.92C226.53 35.7481 224.094 35.7481 221.821 35.7481C219.385 35.7481 217.112 35.7481 214.189 35.92C213.539 35.7481 213.539 34.3731 214.026 33.8575L215.488 33.6856C218.736 33.17 219.06 32.8262 219.06 27.3262V20.9668C219.06 18.9043 218.898 18.9043 216.3 18.9043H202.984C200.386 18.9043 200.224 18.9043 200.224 20.9668V27.3262C200.224 32.8262 200.548 33.3419 203.796 33.6856L205.907 33.8575C206.394 34.2012 206.394 35.5762 205.745 35.92C202.335 35.7481 199.736 35.7481 197.463 35.7481C195.027 35.7481 192.754 35.7481 190.318 35.92C189.668 35.7481 189.668 34.3731 190.156 33.8575L190.967 33.6856C194.215 32.8262 194.54 32.8262 194.54 27.3262V9.45119C194.54 3.95118 194.215 3.60743 190.967 3.0918L189.181 2.91993C188.694 2.57618 188.694 1.20117 189.344 0.857422C192.591 1.0293 194.865 1.0293 197.301 1.0293C199.736 1.0293 202.01 1.0293 204.77 0.857422C205.42 1.0293 205.42 2.4043 204.933 2.91993L203.796 3.0918C200.548 3.7793 200.224 3.95118 200.224 9.45119V14.2637C200.224 16.3262 200.548 16.3262 202.984 16.3262H216.3Z" fill="#000066"></path>
    <path d="M252.021 9.45217C252.021 3.95216 251.697 3.78028 248.449 3.09278L247.312 2.9209C246.825 2.57715 246.825 1.20215 247.474 0.858399C250.073 1.03027 252.346 1.03027 254.782 1.03027C257.218 1.03027 259.491 1.03027 262.414 0.858399C263.064 1.03027 263.064 2.40528 262.576 2.9209L261.115 3.09278C257.867 3.6084 257.542 3.95216 257.542 9.45217V20.6241C257.542 28.7022 259.978 34.0303 267.286 34.0303C274.106 34.0303 277.029 28.5303 277.029 20.6241V13.2334C277.029 5.15528 276.542 3.43653 273.294 2.9209L271.67 2.74903C271.183 2.2334 271.183 1.20215 271.832 0.686523C274.268 0.858399 276.055 0.858399 278.166 0.858399C280.277 0.858399 282.063 0.858399 284.499 0.686523C285.148 1.03027 285.148 2.2334 284.499 2.74903L282.55 2.9209C280.601 3.09278 279.952 5.32716 279.952 13.2334V21.1397C279.952 31.4522 275.567 36.7804 265.824 36.7804C260.953 36.7804 257.38 35.7491 255.107 33.3428C252.833 30.9366 251.859 27.3272 251.859 21.9991V9.45217H252.021Z" fill="#000066"></path>
    <path d="M320.39 21.6563C320.877 22.6875 322.826 26.2969 323.15 26.4688C323.475 26.2969 324.774 23.7188 326.236 20.7969L329.971 13.0625C333.543 5.67189 334.03 4.29688 335.167 0.515625C336.791 0.6875 338.415 0.6875 339.551 0.6875C341.338 0.6875 343.611 0.6875 345.722 0.515625C346.372 0.6875 346.534 2.0625 345.884 2.57813L344.261 2.75C340.85 3.26563 340.688 4.81251 340.688 9.45314C340.688 17.875 340.688 24.7501 341.013 29.5626C341.175 31.2813 341.175 33.1719 343.449 33.5157L345.56 33.6876C346.047 34.0313 346.047 35.4063 345.56 35.7501C342.799 35.5782 339.876 35.5782 337.928 35.5782C335.816 35.5782 333.381 35.5782 331.27 35.7501C330.782 35.4063 330.62 34.0313 331.27 33.6876L332.894 33.5157C335.329 33.1719 335.329 32.4844 335.329 29.3907V11C335.329 9.96877 335.329 8.76564 335.167 8.76564C335.005 8.76564 333.056 12.7188 331.919 14.7813L327.372 23.8907C326.723 25.0938 322.826 33.3438 322.014 35.922C321.689 36.2657 321.039 36.2657 320.552 35.922C319.74 33.0001 317.304 27.8438 316.168 25.2657L311.296 15.125C310.484 13.4063 308.86 9.10939 308.211 8.93752C307.886 9.28127 307.886 14.6094 307.724 17.0157C307.724 20.2813 307.561 23.5469 307.561 27.5001C307.561 31.6251 307.561 33.3438 309.672 33.5157L312.108 33.6876C312.595 34.0313 312.595 35.4063 312.108 35.7501C310.159 35.5782 307.886 35.5782 305.937 35.5782C304.313 35.5782 302.04 35.5782 299.604 35.7501C299.117 35.4063 298.955 34.2032 299.604 33.6876L301.228 33.5157C303.664 33.1719 303.989 32.3126 304.313 29.5626C304.963 25.2657 305.45 12.375 305.45 6.87501C305.45 4.29688 304.638 3.09376 302.04 2.75H300.416C299.929 2.40625 299.929 1.03125 300.579 0.6875C302.69 0.859376 304.313 0.859376 306.424 0.859376C307.886 0.859376 309.51 0.859376 311.946 0.6875C311.946 4.12501 313.245 6.70314 315.843 12.0313L320.39 21.6563Z" fill="#000066"></path>
    <path d="M373.327 23.3741C371.541 23.3741 371.378 23.3741 370.729 25.2647L368.942 30.421C368.13 32.9991 368.293 33.3429 369.754 33.6866L371.865 34.0304C372.515 34.3741 372.352 35.921 371.703 36.0929C369.754 35.921 367.806 35.921 365.695 35.921C363.584 35.921 361.797 36.0929 360.336 36.0929C359.686 35.7491 359.686 34.546 360.173 34.0304L361.96 33.6866C364.233 33.171 365.207 32.3116 366.669 28.3585L373.976 9.96784C375.275 6.70221 375.763 4.81158 375.925 3.2647C377.224 2.74907 378.686 1.2022 379.173 0.170943C379.822 -0.000932207 380.309 0.170943 380.309 0.514694C380.634 1.37407 381.771 5.49908 383.557 10.3116L390.377 29.3898C391.352 31.9679 392.001 32.9991 394.762 33.6866L395.899 33.8585C396.548 34.2023 396.386 35.7491 395.736 35.921C393.788 35.7491 392.001 35.7491 389.403 35.7491C386.643 35.7491 384.532 35.7491 382.583 35.921C381.771 35.7491 381.771 34.2023 382.421 33.8585L383.882 33.6866C385.831 33.3429 385.831 32.8273 384.856 30.421L383.07 25.2647C382.42 23.3741 382.258 23.3741 380.472 23.3741H373.327ZM379.335 20.796C381.284 20.796 381.446 20.6241 380.634 18.3897L378.361 11.5147C377.711 9.62409 377.387 9.10846 377.224 8.59284H377.062C376.899 8.93659 376.575 9.62409 375.925 11.3428L373.164 18.3897C372.352 20.6241 372.515 20.6241 374.139 20.6241H379.335V20.796Z" fill="#000066"></path>
    <path d="M441.046 13.2334C441.046 5.15528 440.559 3.26465 437.798 2.9209L435.362 2.74903C434.875 2.2334 434.875 1.20215 435.525 0.686523C438.285 0.858399 440.072 0.858399 442.183 0.858399C444.294 0.858399 446.08 0.858399 448.516 0.686523C449.165 1.03027 449.165 2.2334 448.516 2.74903L446.242 2.9209C444.294 3.09278 443.644 5.32716 443.644 13.2334V26.6397C443.644 28.1866 443.644 34.7178 443.807 35.921C443.644 36.4366 442.832 36.7803 442.183 36.6085C441.371 35.4053 439.909 33.8585 435.2 28.5303L423.671 15.6397C420.748 12.374 418.799 10.3115 417.825 9.45217C417.5 9.45217 417.5 10.3115 417.5 12.8897V23.3741C417.5 31.4522 417.987 33.5147 420.748 33.6866L423.183 33.8585C423.833 34.3741 423.671 35.4053 423.021 35.921C420.26 35.7491 418.474 35.7491 416.363 35.7491C414.252 35.7491 412.791 35.7491 410.03 35.921C409.38 35.5772 409.38 34.3741 410.03 33.8585L412.303 33.6866C414.252 33.5147 414.902 31.2803 414.902 23.3741V9.10842C414.902 6.53029 414.902 5.32716 413.278 4.12403C412.628 3.6084 411.167 3.09278 410.517 2.9209L409.38 2.74903C408.893 2.2334 408.893 1.03027 409.543 0.686523C412.466 0.858399 414.414 0.858399 416.038 0.858399C417.175 0.858399 418.149 0.858399 419.124 0.686523C420.585 3.78028 423.508 7.21779 426.594 10.4834L433.739 18.2178C435.362 19.9366 439.747 25.0928 440.559 25.6084C441.046 25.4366 441.046 24.4053 441.046 22.3428V13.2334V13.2334Z" fill="#000066"></path>
    <path d="M194.539 79.9219C194.539 74.7656 194.539 73.3906 192.753 73.0469L190.642 72.7031C189.992 72.7031 189.83 70.9844 190.642 70.6406C194.864 70.2969 199.086 70.125 203.146 70.125C210.128 70.125 217.76 71.3281 217.76 79.75C217.76 84.9063 214.026 87.1407 211.103 88.3438C210.778 88.6875 210.94 89.2032 211.103 89.5469C214.838 96.2501 218.248 100.203 220.683 102.266C221.983 103.469 223.444 103.813 224.743 103.984C225.068 104.328 225.068 105.016 224.743 105.188C224.094 105.359 222.957 105.531 221.495 105.531C216.949 105.531 214.188 103.984 210.94 99.5157C208.992 96.9376 207.043 93.5001 205.419 90.9219C204.77 89.8907 203.633 89.7188 202.334 89.7188C200.385 89.7188 200.223 89.8907 200.223 90.9219V96.5938C200.223 102.094 200.547 102.438 203.795 102.953L205.581 103.125C206.069 103.469 206.069 104.844 205.419 105.188C202.171 105.016 199.735 105.016 197.462 105.016C195.026 105.016 192.753 105.016 189.992 105.188C189.18 105.016 189.18 103.469 189.83 103.125L190.967 102.953C194.214 102.266 194.539 102.094 194.539 96.5938V79.9219V79.9219ZM200.223 85.7657C200.223 87.8282 200.223 87.8282 203.958 87.8282C208.829 87.8282 211.427 85.7657 211.427 80.2656C211.427 76.3125 208.829 72.7031 203.47 72.7031C200.71 72.7031 200.223 72.875 200.223 74.9375V85.7657V85.7657Z" fill="#000066"></path>
    <path d="M242.932 79.0615C242.932 73.5615 242.607 73.2178 239.36 72.7022L237.898 72.5303C237.411 72.1865 237.411 70.8115 238.06 70.4678C240.983 70.6396 243.419 70.6396 245.693 70.6396C247.966 70.6396 250.402 70.6396 253.325 70.4678C253.974 70.6396 253.974 72.0147 253.487 72.5303L252.026 72.7022C248.778 73.2178 248.453 73.5615 248.453 79.0615V96.9366C248.453 102.437 248.778 102.78 252.026 103.296L253.487 103.468C253.974 103.812 253.974 105.187 253.325 105.53C250.402 105.358 247.966 105.358 245.693 105.358C243.257 105.358 240.983 105.358 238.06 105.53C237.411 105.358 237.411 103.983 237.898 103.468L239.36 103.296C242.607 102.78 242.932 102.437 242.932 96.9366V79.0615Z" fill="#000066"></path>
    <path d="M295.709 98.1407C295.709 94.5313 295.709 94.0157 292.299 93.3282L289.863 92.8126C289.376 92.4688 289.376 91.2657 289.863 90.7501C292.948 90.9219 296.196 90.9219 298.469 90.9219C300.58 90.9219 303.016 90.9219 304.965 90.7501C305.614 91.0938 305.614 92.2969 305.127 92.8126L303.828 93.1563C301.88 93.6719 301.555 94.1876 301.555 97.6251V99.8594C301.555 101.75 301.717 102.953 302.691 103.469C303.016 103.641 303.016 104.5 302.691 104.672C301.879 104.672 300.256 105.188 298.145 105.531C296.034 105.875 293.435 106.563 290.512 106.563C283.855 106.563 278.333 104.844 274.274 100.719C271.026 97.2813 269.564 92.6407 269.564 88.5157C269.564 84.0469 271.026 79.4063 274.274 75.9688C277.684 72.1875 282.88 69.6094 291 69.6094C295.222 69.6094 298.794 70.8125 301.068 71.1563C301.068 72.7031 301.23 75.9688 301.717 80.2657C301.392 80.9532 300.256 81.125 299.768 80.2657C297.82 73.9063 294.572 71.8438 289.051 71.8438C281.094 71.8438 276.222 78.375 276.222 87.6563C276.222 97.4532 281.906 104.156 291.162 104.156C295.222 104.156 295.709 103.297 295.709 100.203V98.1407Z" fill="#000066"></path>
    <path d="M347.669 85.9366C350.105 85.9366 350.43 85.9366 350.43 83.8741V79.0615C350.43 73.5615 350.105 73.2178 346.857 72.7022L345.396 72.5303C344.908 72.1865 344.908 70.8115 345.558 70.4678C348.481 70.6396 350.917 70.6396 353.19 70.6396C355.626 70.6396 357.899 70.6396 360.822 70.4678C361.472 70.6396 361.472 72.0147 360.985 72.5303L359.523 72.7022C356.276 73.2178 355.951 73.5615 355.951 79.0615V96.9366C355.951 102.437 356.276 102.78 359.523 103.296L361.31 103.468C361.797 103.812 361.797 105.187 361.147 105.53C357.899 105.358 355.464 105.358 353.19 105.358C350.754 105.358 348.481 105.358 345.558 105.53C344.908 105.358 344.908 103.983 345.396 103.468L346.857 103.296C350.105 102.78 350.43 102.437 350.43 96.9366V90.5772C350.43 88.5147 350.267 88.5147 347.669 88.5147H334.353C331.755 88.5147 331.593 88.5147 331.593 90.5772V96.9366C331.593 102.437 331.917 102.952 335.165 103.296L337.276 103.468C337.763 103.812 337.763 105.187 337.114 105.53C333.704 105.358 331.106 105.358 328.832 105.358C326.396 105.358 324.123 105.358 321.687 105.53C321.038 105.358 321.038 103.983 321.525 103.468L322.337 103.296C325.584 102.437 325.909 102.437 325.909 96.9366V79.0615C325.909 73.5615 325.584 73.2178 322.337 72.7022L320.55 72.5303C320.063 72.1865 320.063 70.8115 320.713 70.4678C323.961 70.6396 326.234 70.6396 328.67 70.6396C331.106 70.6396 333.379 70.6396 336.14 70.4678C336.789 70.6396 336.789 72.0147 336.302 72.5303L335.165 72.7022C331.917 73.3897 331.593 73.5615 331.593 79.0615V83.8741C331.593 85.9366 331.917 85.9366 334.353 85.9366H347.669Z" fill="#000066"></path>
    <path d="M389.728 74.9375C389.728 72.875 389.728 72.875 388.104 72.875H385.83C381.283 72.875 379.335 73.3906 377.386 78.8906C376.574 79.4063 375.762 79.0625 375.438 78.5469C376.249 75.1094 377.061 71.1563 377.549 69.0938C377.873 68.75 378.685 68.75 378.848 69.0938C378.848 70.6406 379.984 70.6406 383.07 70.6406H404.018C406.778 70.6406 407.265 70.6406 407.915 69.0938C408.402 68.75 409.052 68.9219 409.214 69.2656C408.564 71.3281 408.24 75.625 408.402 78.5469C408.077 79.2344 406.778 79.2344 406.453 78.5469C405.966 73.3906 404.018 72.7031 399.471 72.7031H396.873C395.411 72.7031 395.249 72.7031 395.249 74.7656V96.5938C395.249 102.094 395.573 102.609 398.821 102.953L400.932 103.125C401.419 103.469 401.419 104.844 400.77 105.188C397.684 105.016 394.762 105.016 392.488 105.016C390.052 105.016 387.292 105.016 384.206 105.188C383.557 105.016 383.557 103.641 384.044 103.125L386.155 102.953C389.403 102.609 389.728 102.094 389.728 96.5938V74.9375V74.9375Z" fill="#000066"></path>
    <path d="M431.786 89.0303C428.213 86.9678 425.128 83.874 425.128 79.4053C425.128 73.5615 429.35 69.4365 436.982 69.4365C439.58 69.4365 441.367 70.124 443.965 70.6396C444.614 72.0146 445.102 75.1084 445.102 78.5459C444.939 79.2334 443.478 79.2334 443.153 78.7178C442.503 75.9678 440.555 71.8428 436.17 71.8428C431.786 71.8428 430 74.5928 430 77.3428C430 80.2647 432.111 81.9834 435.034 83.7022L439.743 86.2803C442.503 87.6553 445.914 91.0928 445.914 96.4209C445.914 102.608 441.042 106.562 433.572 106.562C429.025 106.562 425.94 104.843 424.966 104.155C424.316 102.952 423.342 100.202 423.342 95.9053C423.667 95.0459 424.803 95.0459 425.29 95.7334C425.94 98.6553 429.188 104.327 434.222 104.327C438.119 104.327 440.555 102.265 440.555 98.6553C440.555 96.0772 439.58 93.4991 435.196 91.0928L431.786 89.0303Z" fill="#000066"></path>
    <path d="M211.428 139.905C211.428 140.937 211.59 143.515 211.915 145.577C211.752 145.921 210.94 146.093 210.616 145.749C209.966 142.999 208.18 140.421 203.795 140.421C199.573 140.421 195.514 143.343 195.514 150.39C195.514 157.265 199.736 161.218 204.283 161.218C208.829 161.218 210.778 157.265 211.265 156.062C211.428 155.546 212.239 155.546 212.564 156.062C212.402 158.296 211.59 160.702 210.94 161.562C209.479 161.733 207.693 162.593 204.283 162.593C201.197 162.593 198.112 162.077 195.676 160.187C193.078 158.296 190.967 155.202 190.967 151.077C190.967 146.952 192.591 143.858 195.026 141.796C197.462 139.905 200.71 138.874 204.607 138.874C207.855 138.874 210.94 139.905 211.428 139.905Z" fill="#000066"></path>
    <path d="M231.565 153.998C230.429 153.998 230.266 153.998 229.941 155.201L228.805 158.467C228.318 160.186 228.48 160.358 229.292 160.529L230.591 160.873C230.916 161.045 230.916 162.076 230.429 162.248C229.129 162.076 227.993 162.076 226.531 162.076C225.232 162.076 223.933 162.248 223.121 162.248C222.634 162.076 222.634 161.217 222.959 160.873L224.095 160.529C225.557 160.186 226.206 159.67 227.181 157.092L231.89 145.232C232.702 143.17 233.027 141.795 233.189 140.936C234.001 140.592 234.975 139.561 235.3 139.045C235.625 138.873 235.95 139.045 236.112 139.389C236.274 139.904 237.086 142.654 238.223 145.748L242.608 158.123C243.257 159.842 243.582 160.529 245.368 160.873L246.18 161.045C246.667 161.217 246.505 162.248 246.018 162.42C244.719 162.248 243.582 162.248 241.958 162.248C240.172 162.248 238.71 162.248 237.574 162.42C237.086 162.248 237.086 161.389 237.411 161.045L238.385 160.873C239.685 160.701 239.685 160.358 239.035 158.811L237.898 155.373C237.574 154.17 237.411 154.17 236.274 154.17H231.565V153.998ZM235.463 152.279C236.762 152.279 236.924 152.108 236.274 150.733L234.813 146.264C234.488 145.061 234.163 144.717 234.001 144.373H233.839C233.676 144.545 233.514 145.061 233.027 146.092L231.24 150.733C230.753 152.108 230.753 152.279 231.89 152.279H235.463V152.279Z" fill="#000066"></path>
    <path d="M271.026 152.968C271.35 153.655 272.649 155.89 272.812 156.062C272.974 155.89 273.949 154.343 274.76 152.452L277.196 147.468C279.47 142.655 279.794 141.796 280.606 139.39C281.743 139.562 282.717 139.562 283.367 139.562C284.504 139.562 285.965 139.562 287.427 139.39C287.914 139.562 287.914 140.421 287.589 140.765L286.452 140.937C284.179 141.28 284.179 142.312 284.179 145.233C284.179 150.733 284.179 155.03 284.504 158.124C284.666 159.327 284.666 160.53 286.128 160.702L287.589 160.874C287.914 161.046 287.914 161.905 287.589 162.249C285.803 162.077 283.854 162.077 282.717 162.077C281.256 162.077 279.794 162.077 278.495 162.249C278.171 162.077 278.171 161.218 278.495 160.874L279.632 160.702C281.256 160.53 281.256 160.015 281.256 157.952V146.093C281.256 145.405 281.256 144.718 281.094 144.546C280.931 144.546 279.632 147.124 278.983 148.499L276.06 154.515C275.735 155.202 273.137 160.702 272.649 162.249C272.325 162.421 272 162.421 271.675 162.249C271.188 160.358 269.564 157.093 268.752 155.374L265.504 148.843C265.017 147.64 263.881 144.89 263.556 144.89C263.393 145.233 263.231 148.671 263.231 150.046C263.231 152.108 263.069 154.343 263.069 156.749C263.069 159.327 263.069 160.53 264.53 160.702L266.154 160.874C266.479 161.046 266.479 161.905 266.154 162.249C264.855 162.077 263.393 162.077 262.094 162.077C260.958 162.077 259.496 162.077 258.035 162.249C257.71 162.077 257.71 161.218 258.035 160.874L259.009 160.702C260.633 160.53 260.795 160.015 260.958 158.124C261.282 155.374 261.607 146.952 261.607 143.515C261.607 141.796 261.12 141.108 259.334 140.937L258.197 140.765C257.872 140.593 257.872 139.733 258.359 139.39C259.658 139.562 260.795 139.562 262.094 139.562C263.069 139.562 264.043 139.562 265.667 139.39C265.667 141.624 266.479 143.343 268.265 146.78L271.026 152.968Z" fill="#000066"></path>
    <path d="M304.637 145.577C304.637 142.14 304.637 141.452 303.501 141.28L302.039 141.108C301.552 140.937 301.714 139.905 302.039 139.733C304.8 139.562 307.236 139.39 309.834 139.39C312.594 139.39 314.381 139.733 315.68 140.249C317.304 140.937 319.577 142.655 319.577 146.265C319.577 149.874 317.304 151.421 315.517 152.108C313.893 152.796 311.945 152.968 311.133 152.968C310.808 152.796 310.808 152.28 311.133 152.108C314.218 151.421 315.68 149.53 315.68 146.265C315.68 142.827 313.731 140.937 310.321 140.937C308.372 140.937 308.372 141.28 308.372 142.655V156.577C308.372 160.187 308.535 160.358 310.646 160.702L311.782 160.874C312.107 161.046 312.107 162.077 311.62 162.249C309.509 162.077 307.885 162.077 306.424 162.077C304.8 162.077 303.338 162.077 301.714 162.249C301.39 162.077 301.227 161.218 301.552 160.874L302.364 160.702C304.475 160.187 304.637 160.187 304.637 156.577V145.577V145.577Z" fill="#000066"></path>
    <path d="M337.766 153.998C336.63 153.998 336.467 153.998 336.143 155.201L335.006 158.467C334.519 160.186 334.681 160.358 335.493 160.529L336.792 160.873C337.117 161.045 337.117 162.076 336.63 162.248C335.331 162.076 334.194 162.076 332.732 162.076C331.433 162.076 330.134 162.248 329.322 162.248C328.835 162.076 328.835 161.217 329.16 160.873L330.297 160.529C331.758 160.186 332.408 159.67 333.382 157.092L338.091 145.232C338.903 143.17 339.228 141.795 339.39 140.936C340.202 140.592 341.177 139.561 341.501 139.045C341.826 138.873 342.151 139.045 342.313 139.389C342.476 139.904 343.288 142.654 344.424 145.748L348.809 158.123C349.458 159.842 349.783 160.529 351.569 160.873L352.381 161.045C352.868 161.217 352.706 162.248 352.219 162.42C350.92 162.248 349.783 162.248 348.159 162.248C346.373 162.248 344.911 162.248 343.775 162.42C343.288 162.248 343.288 161.389 343.612 161.045L344.587 160.873C345.886 160.701 345.886 160.358 345.236 158.811L344.1 155.373C343.775 154.17 343.612 154.17 342.476 154.17H337.766V153.998ZM341.501 152.279C342.8 152.279 342.963 152.108 342.313 150.733L340.852 146.264C340.527 145.061 340.202 144.717 340.04 144.373H339.877C339.715 144.545 339.553 145.061 339.066 146.092L337.279 150.733C336.792 152.108 336.792 152.279 337.929 152.279H341.501V152.279Z" fill="#000066"></path>
    <path d="M367.158 145.062C367.158 141.452 366.995 141.28 364.884 140.937L363.91 140.765C363.585 140.593 363.585 139.562 364.072 139.39C366.021 139.562 367.482 139.562 369.106 139.562C370.73 139.562 372.192 139.562 374.14 139.39C374.465 139.562 374.628 140.421 374.303 140.765L373.328 140.937C371.217 141.28 371.055 141.452 371.055 145.062V156.577C371.055 160.187 371.217 160.358 373.328 160.702L374.303 160.874C374.628 161.046 374.628 162.077 374.14 162.249C372.354 162.077 370.73 162.077 369.106 162.077C367.482 162.077 366.021 162.077 364.072 162.249C363.748 162.077 363.585 161.218 363.91 160.874L364.884 160.702C366.995 160.358 367.158 160.187 367.158 156.577V145.062Z" fill="#000066"></path>
    <path d="M403.695 157.437C403.695 155.03 403.695 154.687 401.422 154.343L399.798 153.999C399.473 153.827 399.473 152.968 399.798 152.624C401.746 152.796 403.858 152.796 405.319 152.796C406.618 152.796 408.242 152.796 409.379 152.624C409.703 152.796 409.866 153.655 409.541 153.999L408.729 154.171C407.43 154.515 407.268 154.858 407.268 157.093V158.468C407.268 159.671 407.43 160.53 408.08 160.874C408.242 161.046 408.242 161.562 408.08 161.562C407.592 161.562 406.456 161.905 405.157 162.077C403.858 162.249 402.071 162.765 400.285 162.765C395.901 162.765 392.328 161.733 389.73 158.983C387.619 156.749 386.645 153.827 386.645 151.077C386.645 148.155 387.619 145.233 389.73 142.999C392.003 140.593 395.251 138.874 400.447 138.874C403.208 138.874 405.481 139.562 406.943 139.905C406.943 140.937 407.105 142.999 407.43 145.749C407.268 146.265 406.456 146.265 406.131 145.749C404.832 141.624 402.721 140.249 399.148 140.249C393.952 140.249 390.867 144.374 390.867 150.39C390.867 156.749 394.601 161.046 400.447 161.046C403.046 161.046 403.37 160.53 403.37 158.468V157.437H403.695Z" fill="#000066"></path>
    <path d="M441.533 147.64C441.533 142.483 441.208 141.108 439.422 140.937L437.798 140.765C437.473 140.421 437.473 139.733 437.96 139.39C439.746 139.562 440.883 139.562 442.345 139.562C443.806 139.562 444.78 139.562 446.404 139.39C446.729 139.562 446.729 140.421 446.404 140.765L444.943 140.937C443.644 141.108 443.319 142.483 443.319 147.64V156.233C443.319 157.265 443.319 161.39 443.481 162.249C443.319 162.593 442.832 162.765 442.507 162.765C442.02 162.077 441.045 160.874 437.96 157.437L430.49 149.015C428.704 146.952 427.405 145.577 426.755 145.062C426.593 145.062 426.593 145.577 426.593 147.296V154.171C426.593 159.327 426.918 160.702 428.704 160.874L430.328 161.046C430.653 161.39 430.653 162.077 430.165 162.421C428.379 162.249 427.243 162.249 425.781 162.249C424.32 162.249 423.508 162.249 421.721 162.421C421.397 162.249 421.397 161.39 421.721 161.046L423.183 160.874C424.482 160.702 424.807 159.327 424.807 154.171V144.89C424.807 143.171 424.807 142.483 423.832 141.624C423.508 141.28 422.533 140.937 422.046 140.937L421.234 140.765C420.909 140.421 420.909 139.733 421.397 139.39C423.183 139.562 424.482 139.562 425.619 139.562C426.268 139.562 426.918 139.562 427.567 139.39C428.542 141.28 430.328 143.515 432.277 145.749L436.823 150.733C437.96 151.937 440.721 155.202 441.208 155.546C441.533 155.374 441.533 154.687 441.533 153.483V147.64V147.64Z" fill="#000066"></path>
  </g>
  <defs>
    <clipPath id="clip0">
      <rect width="449" height="162.766" fill="white"></rect>
    </clipPath>
  </defs>
</svg>
