<?xml version="1.0" encoding="UTF-8"?>
<!-- Generator: Adobe Illustrator 22.0.1, SVG Export Plug-In . SVG Version: 6.00 Build 0)  -->
<svg xmlns="http://www.w3.org/2000/svg" xmlns:xlink="http://www.w3.org/1999/xlink" id="Layer_1" x="0px" y="0px" viewBox="0 0 333 335" style="enable-background:new 0 0 333 335;" xml:space="preserve">
<style type="text/css">
	.st0{fill:#1A70B3;}
	.st1{fill:#35AC46;}
	.st2{fill:#00AA9C;}
	.st3{fill:#006E3C;}
	.st4{fill:#009659;}
</style>
<g>
	<path class="st0" d="M281.4,161.4L325.2,78l0,0c3.9-7.1,6.1-15.3,6.1-24.1c0-27.7-22.5-50.2-50.2-50.2c-19.2,0-35.9,10.8-44.3,26.7   l0,0l-12.7,23.7v107.3H281.4z"></path>
	<path class="st1" d="M224.2,161.3l0-107.1l0,0l-12.7-23.7l0,0C203,14.5,186.3,3.7,167,3.7c-19.3,0-36,10.8-44.5,26.7l0,0   l-12.7,23.8v107.1L224.2,161.3z"></path>
	<path class="st2" d="M52.6,161.4L8.8,78l0,0c-3.9-7.1-6.1-15.3-6.1-24.1c0-27.7,22.5-50.2,50.2-50.2c19.2,0,35.9,10.8,44.3,26.7   l0,0l12.7,23.7v107.3H52.6z"></path>
	<path class="st3" d="M167,161.3l35.7,66.9l0,0c4.3,7.6,12.5,12.7,21.8,12.7c9.5,0,17.7-5.3,22-13l0,0l34.9-66.5L224.2,54.1l0,0   L167,161.3L167,161.3z"></path>
	<path class="st4" d="M167,161.3l-35.7,66.9l0,0c-4.3,7.6-12.5,12.7-21.8,12.7c-9.5,0-17.7-5.3-22-13l0,0l-34.9-66.5l57.2-107.3l0,0   L167,161.3L167,161.3z"></path>
	<path d="M120.3,299.4c1.6,5.7,2.7,11.7,3.6,17.6c0.1-6.2,0.9-12,2.3-17.6l9.4-39h15.2L132,332.3h-14.8l-12.9-45.9   c-0.9-3-1.9-7.2-2.2-13c-0.3,4.8-1,9.2-2.1,13l-13,45.9H72.2l-18.8-71.9h15.4l9.5,39.9c1.1,4.9,1.7,10.3,2,16.2   c1-6.7,2.5-12.3,3.7-16.9l10.6-39.2h15.1L120.3,299.4z"></path>
	<path d="M196.4,271.1c-15.4,0-25.1,10-25.1,25.4c0,14.9,8.8,24.6,23.6,24.6c8.2,0,15.4-2.7,21.5-8.4l-0.1,15.8   c-6.5,3.8-13.7,5.7-21.6,5.7c-23.2,0-39.2-16.2-39.2-37.8c0-21.2,15.6-37.7,39.5-37.7c9.1,0,16.2,2.2,22,5l-0.5,15.4   C211.2,274.4,204.9,271.1,196.4,271.1"></path>
	<path d="M238,313.5c2.2,5.3,7.3,8.6,13.3,8.6c7.4,0,11.7-3.8,11.7-9.5c0-6.3-5.9-7.6-15.8-12.8c-10.6-5.5-16.7-10.8-16.7-20.8   c0-11.4,9.8-20.3,25.4-20.3c8.7,0,14.8,2.9,19.6,9.5l-9.1,8.7c-2.2-4.2-5.8-6.2-10.8-6.2c-6.2,0-10.2,3.5-10.2,8.2   c0,6.6,6.4,8.2,14.5,11.9c12.1,5.5,17.9,12.4,17.9,21.4c0,13-9.4,22.1-25.5,22.1c-11.2,0-19.1-4-22.9-11.1L238,313.5z"></path>
</g>
</svg>
